<svg xmlns="http://www.w3.org/2000/svg" viewBox="10.551 0.897 786.819 630.439"><path d="M17 0H0v623h18.5c10.2 0 18.5-.3 18.5-.8 0-.4-.7-1.6-1.5-2.7-1.3-1.7-1.5-40.8-1.5-310.8V0H17m894.5 0H823v623h177V0h-88.5M277 7.2c-177.8-.1-229.9.1-230.8 1S45 69.9 45 276.6l1 270 1 2.7 1.5-2.2c.8-1.2 2.5-2.2 3.7-2.2s3.7-1.6 5.6-3.5 3.8-3.5 4.2-3.5 2.6-1.6 4.9-3.5 4.8-3.5 5.5-3.5 1.8-.7 2.5-1.5 2-1.5 2.8-1.5 3.2-1.5 5.1-3.4 5.3-4.3 7.5-5.5 5.5-2.1 7.3-2.1c1.9 0 3.5-.6 3.8-1.4s1.8-1.7 3.4-2.1c1.5-.3 4.1-1.9 5.7-3.5 2.7-2.7 3.4-2.9 10.4-2.9 7.3 0 7.7-.1 10.9-3.5 1.9-1.9 4.3-3.5 5.5-3.5s3.7-1.6 5.6-3.6c3.2-3.3 3.8-3.6 8.3-3.1 3.5.3 5.2 1 6.3 2.6 1.1 1.5 2.4 2.1 4.2 1.9l2.7-.3.3-10.8c.2-8.4-.1-11.3-1.2-13-.8-1.2-1.5-3.4-1.5-4.8s.6-3.2 1.4-3.8 1.7-2.5 2-4.2c.4-1.8 1.1-2.9 1.9-2.6.7.2 1.5 2.7 1.8 5.6.3 2.8 1.1 5.7 1.8 6.4.8.8 1.2 4.6 1.2 10.9 0 7.5.3 10 1.5 11 1.1.9 1.8 1 2.7.2.6-.6 1.2-4 1.2-7.6.1-5.3.5-6.9 2.3-8.7s2.5-2 3.7-1c.8.7 2.2 2.7 3.1 4.6.9 1.8 1.6 5 1.6 7.1 0 2.7.8 4.6 3 7.1 2.9 3.3 3 3.8 3 12.8 0 5.6-.4 9.7-1.1 10.1-.6.4-2.2-.4-3.5-1.6-1.3-1.3-2.4-2.9-2.4-3.6s-1.4-2.9-3.1-4.8c-2.2-2.5-4.3-3.7-7-4.2-2.1-.3-4.4-1.2-5-2s-2.2-1.4-3.5-1.4c-1.6 0-2.4.6-2.3 1.8 0 1 .7 2.6 1.5 3.7s1.5 3.3 1.5 5c0 2.5 1.4 4.3 7.4 10.1 5.9 5.6 7.6 7.9 8.4 11.2.5 2.3 2.2 5.8 3.8 7.7 1.6 2 3.2 3.6 3.6 3.6s1.1-.7 1.6-1.7c.6-1 1.6-1.4 2.5-1 .9.3 1.6 1.5 1.6 2.7 0 1.1.4 2 .9 2s1.2-3.5 1.6-7.8 1.2-8.3 1.8-9c.7-.9.6-1.8-.6-3.1-1.1-1.2-1.6-3.6-1.6-7.4 0-3.7.5-6 1.5-6.8.8-.7 1.5-2.2 1.5-3.4s-.5-2.6-1-3.2c-.6-.6-.8-1.7-.4-2.6.3-.8 1.7-2 3-2.6s2.7-2.3 3.1-3.9c.4-1.5 1.5-3.5 2.4-4.5s2-2.3 2.2-3c.4-1 .8-1 1.8-.1s1 1.5.1 2.6c-.6.8-.9 2.1-.6 3s1.6 2.3 2.9 3.1c2 1.3 2.2 2.1 1.8 5.6-.4 3.3-.1 4.5 1.6 6.1 1.2 1.1 2.1 2.8 2.1 3.8s1.8 3.3 4 5.2c2.3 2 4 4.3 4 5.6 0 1.2.5 2.5 1 2.8s1 1.9 1 3.4.7 3.4 1.6 4.1c1.4 1.2 1.4 1.4-.2 2.6-1 .7-4.3 1.3-7.4 1.3-4.4 0-6.1-.4-7.5-2-1-1.1-2.4-2-3.1-2s-1.5-.6-1.8-1.2c-.3-.7-.5 1.3-.6 4.4-.1 3.9.4 6 1.4 6.9s1.5 3.1 1.5 7.4c0 3.4-.7 7.2-1.5 8.6s-1.4 4.3-1.5 6.5c0 2.2.4 4.5 1 5.1s.9 2.6.8 4.5c-.3 2.6-.8 3.4-2.6 3.7-1.2.2-2.8 1.3-3.4 2.4-.9 1.7-.8 2.4.8 3.7 1 .9 2.7 3.2 3.7 5.1s2.9 4.8 4.2 6.3 2.9 2.5 3.4 2.2 1-1.7 1-3.1.7-2.7 1.5-3 1.5-1.4 1.5-2.4-1.4-3-3.1-4.4c-2.3-2-3.2-3.8-3.9-7.7-.7-4.7-.6-5.2 1.5-6.6s2.4-2.4 2.6-10.2c.2-5.1.7-8.6 1.3-8.4.6.1 1.2 6.8 1.5 16.3.4 12 .8 16.3 1.9 16.9.7.5 1.6 2.9 1.9 5.4.4 3.8.9 4.7 2.9 5.2 1.3.3 2.9.3 3.4 0s1-1.4 1-2.5-.4-2.1-.9-2.4.1-2.4 1.2-4.5c1.5-2.7 2.8-4 4.3-4 1.4 0 2.3.8 2.8 2.4.3 1.3 1.5 2.7 2.7 3.1 1.3.4 2.7.1 3.8-.9 1-.9 2.7-1.6 3.9-1.6s2.2.4 2.2.9 1.5 1.4 3.4 2.1 4.1 2.2 5 3.5 1.6 3.1 1.6 3.9 1.6 2.2 3.5 3c2.4 1 3.9 2.5 4.6 4.5.6 1.7 1.5 3 2 3s.9 1 .9 2.3.5 2.8 1.2 3.5c.8.8 4.7 1.2 10.8 1.2 5.9 0 10-.4 10.8-1.2.9-.9 1.5-.9 2.6.1.8.7 2.7 1.1 4.3.9 1.9-.2 3.2-1.2 4.1-3.1.7-1.5 2-2.8 2.8-2.8 1 0 1.4-.8 1.2-2.2-.2-1.6-1.1-2.3-3.1-2.6-1.6-.2-2.8-.9-2.8-1.8 0-.8-.5-1.4-1-1.4s-1 .2-1 .5.5 1.4 1.2 2.4c1 1.6.7 2.3-2.2 5-1.9 1.7-4 3.1-4.7 3.1s-1.5-1.2-1.9-2.8a62.96 62.96 0 0 0-1-4.1c-.4-1.1-.8-1.1-2.3.3-1.2 1.1-2.7 1.5-4 1.1-1.1-.4-2.5-1.5-3.1-2.6s-2.6-2.6-4.6-3.4c-2.6-1.1-3.4-1.9-3-3.1.3-.9.6-2.2.6-2.9s.9-1.6 2-2c1.3-.4 2-1.5 2-3 0-1.3-.5-2.7-1.1-3.1s-2 .4-3.1 1.7-2.6 3.9-3.4 5.8l-1.5 3.4-2.4-2.2c-1.3-1.2-2.6-3.3-2.9-4.5-.4-1.4-1.5-2.5-2.8-2.7s-2.8-1.6-3.7-3.3c-.8-1.6-2.5-3.8-3.8-4.8s-2.3-2.9-2.3-4.2c0-1.7.8-2.6 3-3.4 2.1-.7 2.8-1.5 2.4-2.6-.3-.9-1.6-1.6-2.9-1.6-1.4 0-3.6-1.4-5.5-3.6-2.2-2.5-3.1-4.3-2.7-6 .2-1.3-.1-2.8-.8-3.4-.9-.8-1.5-.7-2.1.2-.4.7-.8 4.7-.8 8.8 0 6-.3 7.5-1.5 7.5-.8 0-1.7-1.1-1.8-2.5-.2-1.4-1.4-3.5-2.8-4.7-1.3-1.2-2.4-2.9-2.4-3.8s.9-1.5 1.9-1.5c1.2 0 2.9-1.7 4.6-4.6 2.5-4.2 2.6-4.7 1.1-6.3-.9-1-1.6-2.6-1.6-3.6s-.8-2.7-1.7-3.7c-1.3-1.5-1.5-2.3-.6-3.7.9-1.5.5-2.2-2.4-4.6-1.9-1.5-4.1-4.3-4.9-6-.8-1.8-2.3-3.5-3.5-3.8-1.7-.4-2-1.1-1.6-2.9.4-1.5-.6-4.8-3-9.8-3.1-6.4-3.4-7.9-2.5-10.3.8-2.2.7-3.4-.6-5.7-1.2-2-2.6-3-4.7-3.2-2.2-.2-3.1-.9-3.3-2.4-.2-1.1.6-2.9 1.8-3.9 1.8-1.7 2-3 2-13.1 0-9.1.3-11.3 1.5-11.8 1.1-.4 1.5-2.2 1.5-6.9 0-3.5.7-7.4 1.5-8.8.9-1.6 1.4-5.6 1.5-11.4v-8.9l5.3-5.3 5.3-5.3h16.8l5.2 5.4c2.9 3 5.2 6.1 5.2 6.9s.7 2 1.5 2.7c1.3 1.1 1.9.9 4-1 1.4-1.3 2.7-3.2 3.1-4.4.3-1.2 1.8-3.3 3.1-4.8 1.4-1.5 3-3.7 3.7-5 1.1-2.1 1.8-2.3 8.4-2.3 6 0 7.5.3 8.3 1.8.6 1 2.6 2.5 4.4 3.3 2.5 1 3.4 2 3.4 3.7 0 1.4-1.6 3.9-3.9 6.2-2.2 2.1-3.7 4.2-3.4 4.7.3.4 1.1.8 1.8.8s3.4-2 6-4.4c4.3-4.1 4.6-4.6 3.8-7.7-.6-2.5-.4-4.2.9-6.8 1-1.9 1.6-3.7 1.3-4s-1.1.1-2 .8c-.8.7-2.2 1-3 .7-1.1-.4-1.5-2-1.5-5.6 0-2.7-.4-5.2-.9-5.6-.5-.3-2.1-3-3.5-6-2.1-4.5-2.6-6.8-2.6-14.2 0-7.1.4-9.4 2-11.8 1.1-1.6 2-4.2 2-5.6 0-1.5.7-2.9 1.5-3.2 1.1-.4 1.5-2.3 1.5-7.7 0-5.2-.3-7-1.2-6.7-.7.2-1.4 1.8-1.6 3.5s-1 3.6-1.8 4.3-1.4 2.2-1.4 3.5-.6 2.8-1.4 3.4-1.7 2.8-2 4.9-.9 5.3-1.3 7.2-1.1 3.8-1.7 4.2-1.7.7-2.4.8c-.7 0-1.2-1.2-1.2-2.9 0-1.6-.6-3.4-1.3-4-1-.8-1.6-.8-2.5.1-.6.6-1.2 2.4-1.2 3.8s-.3 2.9-.7 3.3-1.3.2-2-.5c-.9-.7-1.3-3.5-1.3-8.3s.5-7.8 1.5-9.1c.8-1.1 1.5-3.2 1.5-4.8s1-4.4 2.2-6.3c1.6-2.6 2-4.5 1.6-8-.4-3.9-.1-4.9 2.4-7.8 2.4-2.7 2.9-4.2 2.9-8.5 0-2.9-.4-6-1-7-.6-1.1-.6-3 0-5.2.5-1.9 2.3-4.9 3.9-6.6 2.4-2.6 3.2-4.8 4.2-11 .7-4.3 1.6-8.2 2.1-8.7s.8-2.2.8-3.8.7-3.1 1.5-3.4 1.5-1.6 1.5-2.8.9-3.1 2-4 2-2.5 2-3.4 1.1-3.8 2.5-6.6 2.5-5.9 2.5-7 1.4-3.6 3-5.5 3-4.5 3-5.8 1-4.2 2.2-6.5 3.4-5.7 5-7.5 2.9-3.9 2.9-4.7.6-1.8 1.3-2.2 2-1.9 2.9-3.3c1.2-1.9 1.3-2.9.5-4.3-.9-1.4-.7-2 .7-2.8 1-.6 2.9-3.2 4.2-5.8 1.7-3.3 3.2-5 5-5.5 2.1-.5 2.5-1.1 1.9-2.7-.5-1.5.3-3.2 2.4-5.9 1.7-2.1 3.1-4.5 3.1-5.2 0-.8 1.4-2.7 3-4.2s3-3.4 3-4.2c0-.7 1.4-2.8 3-4.7s3-3.9 3-4.5 1.4-2.5 3-4.3c1.7-1.8 3.3-4.2 3.6-5.3s1.4-2.9 2.3-4 2.7-3.7 3.9-5.8 2.2-4.4 2.2-5.1.9-2.1 2-3.1 2-2.7 2-3.7 1.6-3.3 3.5-5.1 3.5-4.2 3.5-5.3c0-1.2.7-2.7 1.5-3.4s1.5-2.5 1.5-4.1.5-3.1 1-3.4 1-1.5 1-2.6 1.6-3.7 3.6-5.9 4-4 4.5-4 2.7 1.6 4.9 3.6c4 3.6 4 3.7 2.1 5.8-1.1 1.2-2.2 3.8-2.6 5.8-.6 3.1-.3 3.9 1.4 4.8 1.1.6 2 1.8 2 2.7s-1.2 2.9-2.7 4.5c-1.5 1.5-3.7 2.8-4.9 2.8s-2.5-.4-2.9-1-1-1-1.5-1-3.6 2.5-6.9 5.6-6.1 6.3-6.1 7.1-1.4 3.2-3.1 5.3-2.8 4.3-2.5 4.9c.4.6.1 2.1-.5 3.3-.7 1.2-2.7 3.7-4.5 5.5s-3.3 3.9-3.3 4.7c0 .9-1.5 3.3-3.3 5.3-1.8 2.1-4.3 5.8-5.5 8.3s-4.2 6.7-6.6 9.3c-3.1 3.4-4.4 5.6-4.4 7.8s-1.1 4.2-4.2 7.2c-3 3.1-4.2 5.1-4.2 7.3 0 2.1-1 4-3.5 6.4-1.9 1.9-3.5 4.3-3.5 5.5s-.9 2.9-2 3.8-2 2.6-2 3.7-.4 2.2-1 2.6c-.5.3-1.9 2.7-3 5.2s-2 5.7-2 7-.6 2.7-1.4 2.9c-.8.3-3.5 4.8-6 9.9-4.1 8.3-4.6 10.1-4.6 16.1 0 6.2-.2 7-3.1 10-1.9 2-2.9 3.8-2.5 4.8.3.9 1 1.6 1.6 1.6.5 0 1.5-.9 2.1-2s1.5-1.8 2-1.4c.5.3.7 3 .3 6.3-.3 3.1-1.2 6.4-2 7.3s-1.4 2.1-1.4 2.6c0 .6-.7 1.3-1.6 1.7-.9.3-1.3 1.1-.9 1.6.3.6 1 1 1.6 1s.9-.7.9-1.6c0-1 .7-1.4 1.8-1.2 1.3.3 1.7 1.2 1.6 3.7-.1 2.2-1.2 4.4-3.2 6.5-2.5 2.6-3.1 4-3.1 7.8 0 2.9-.6 5.1-1.5 5.8-.8.7-1.5 1.9-1.5 2.6 0 .8.5 1.4 1 1.4s1 .5 1 1.1-.7 1.8-1.6 2.6c-1.1 1.1-1.3 1.9-.5 2.7s1.6.8 2.9 0 2.2-.8 3.7.3c1 .8 2.9 1.4 4.1 1.4s3.4.9 4.8 2.1c1.4 1.1 2.6 3 2.6 4.1 0 1.3 1 2.3 3 3 2.1.7 3 1.7 3 3.3 0 1.2.9 3.1 2 4.1 1.4 1.2 2 3.1 2 5.9 0 2.3.7 5 1.5 6 .8 1.1 1.5 3.4 1.5 5.2s-.5 3.3-1 3.3c-.6 0-1.3.6-1.6 1.4s1.3 3.2 3.6 5.5 4.5 4.1 4.9 4.1 1.1.7 1.4 1.5 1.3 1.5 2.1 1.5 1.5-.4 1.5-.8-.5-1.3-1.1-1.9c-.8-.8-.8-1.7.1-3.3.9-1.8.9-2.5-.4-4-1.4-1.6-1.4-1.9-.1-3 1.1-.9 1.5-3.1 1.5-7.4 0-3.8-.6-6.9-1.5-8.1-.8-1.1-1.5-2.5-1.5-3.2s.9-1.7 1.9-2.3c1.1-.6 2.6-.8 3.5-.4.9.3 1.6 1.4 1.6 2.3 0 1 .7 3.2 1.6 4.9s2 3.2 2.4 3.2c.5 0 1.2-.5 1.6-1.2s-.2-1.8-1.4-2.6-2.2-2.5-2.2-3.7.6-2.5 1.4-2.8 2 .1 2.6.9c.7.8 2.7 1.4 4.5 1.4s4.5.4 5.9 1c2.1.8 2.7.6 3.6-1 .7-1.3 2.1-2 4-2s3-.5 3-1.4c0-.8-1.2-2.8-2.8-4.5-1.5-1.7-3.5-5-4.4-7.3-.9-2.4-2.1-5.9-2.8-7.9-.6-2-1.1-4.8-1.1-6.3s-.7-3.4-1.5-4.3c-.9-.9-1.5-3.3-1.5-6 0-3.7-.4-4.6-2.2-5.3-1.3-.5-3-.5-4 .1-1 .5-1.8 1.4-1.8 1.9s1.1 1.4 2.5 1.9c2.1.8 2.5 1.6 2.5 4.9 0 2.2-.5 4.3-1.1 4.6-.6.4-2.2-.4-3.6-1.7-2.1-2-2.4-3-2-6.2.3-2.1 0-4.9-.6-6.3-.8-1.8-1.8-2.3-3.7-2.1-2.5.3-2.6.1-2.9-6.7-.2-4.9-.7-7.4-1.8-8.2-.9-.6-1.4-2-1.2-3s1.6-2.4 3.1-3.1c2.5-1.2 2.7-1.8 2.7-7.1 0-4.5.4-6.2 2-7.6 1.3-1.2 2-3.1 2-5.5 0-2.1.7-4.3 1.5-5s1.5-2.4 1.5-3.9c0-1.4.9-4 2-5.6 1.2-1.8 2-4.7 2-7.3 0-2.9.5-4.5 1.5-4.9s1.5-1.9 1.5-4.6c0-2.2.6-4.8 1.4-5.6.7-.9 1.9-3.1 2.5-5s1.1-3.8 1.1-4.2-.9-.9-2-.9-2.3-.7-2.7-1.6c-.4-1 .2-2.2 1.4-3.2 1.1-.9 3-3.8 4.2-6.5s2.1-5.8 2.1-6.9c0-1.2 2.2-4.2 5-6.9s5-5.6 5-6.6 2-3.7 4.4-6 4.7-3.8 5-3.3-.1 1.5-.9 2.1c-.8.7-1.5 2.5-1.5 4.1 0 1.9.5 2.9 1.5 2.9.9 0 2.8-.7 4.3-1.4 1.5-.8 3.7-1.2 4.7-1 1 .3 3-.1 4.4-.8s2.7-2.3 3-3.6 1-2.4 1.5-2.5 1.1 1 1.3 2.6.9 2.8 1.8 2.8c.8 0 1.7-1.3 2.1-3 .3-1.6.8-3 1.1-3s1.4.7 2.4 1.7c1.7 1.5 2 1.5 4.3-1 1.4-1.5 3-2.7 3.8-2.7s1.8.9 2.5 1.9c.8 1.2 1.9 1.7 3.1 1.4 1.1-.3 2.8 0 3.9.5 1.5.8 2.5.5 4.6-1.5 1.5-1.4 2.7-3.1 2.7-3.8s1.1-2.4 2.3-3.8c1.3-1.4 3.3-3 4.4-3.6 1.7-.9 2.2-.8 2.7.8.4 1.2-.7 4.2-3 8.1-2.6 4.5-3.3 6.5-2.5 7.3s1.9.2 4.1-2.3c1.7-1.9 3-3.9 3-4.6s.7-1.8 1.5-2.4 1.5-2.1 1.5-3.1 1.1-3 2.3-4.5c1.5-1.8 2.9-2.5 4-2.1.9.4 1.7 1.3 1.7 2.2s-1 2.6-2.2 3.8-3.3 4.3-4.7 6.9c-2 3.8-2.2 4.9-1.2 6.2.7.8 2.7 1.7 4.4 1.8 2.9.3 3.2.6 3 3.8l-.3 6.5c-.1 1.6.1 4.4.3 6 .2 1.7 1 3 1.7 3 .8 0 1.7-1.5 2-3.3s1.5-4.2 2.4-5.2c1-1.1 2.1-1.7 2.6-1.4s.9 1.8.9 3.4c0 1.7.9 3.7 2.2 4.9 1.2 1.1 2.7 2 3.4 2s1.8-1.4 2.4-3c.7-1.7 2.5-4.7 4.1-6.6 1.7-2.1 2.9-4.8 2.9-6.5 0-1.6.6-3.1 1.5-3.5.8-.3 1.5-1.6 1.5-2.8s1.5-3.8 3.2-5.7c1.8-1.9 4.1-5 5.2-6.8 1.1-1.9 2.9-4.8 4-6.6s3.7-5.2 5.8-7.7 3.8-5 3.8-5.6c0-.7 1.1-2.3 2.5-3.7 1.9-1.9 2.3-2.9 1.6-4.3-.7-1.3-.3-2.4 1.5-4.4 1.4-1.5 2.9-2.7 3.4-2.7a1.08 1.08 0 0 0 1-1c0-.5 1.6-2.5 3.5-4.2s3.5-4 3.5-5.1c0-1 .9-2.6 2.1-3.5 1.8-1.5 1.9-1.9.6-3-1.3-1-2.1-.8-4.9 1.7-2.5 2.2-3.8 2.7-5 2-1-.6-2.5-.5-4.1.2-1.9.9-3 .8-4.8-.2-1.3-.7-5.3-1.6-8.9-1.9l-6.5-.5-.3-3.8c-.2-2.6.2-4.5 1.4-5.7 1.6-1.8 1.6-1.9-1.5-2.5-2.2-.4-3.1-1.1-2.9-2.3.2-1.1 1.6-1.7 4.5-1.9 3.3-.2 4.2-.7 4.2-2.1 0-1.6-.6-1.7-4.5-1.3-3.6.4-4.5.2-4.5-1.1 0-.9.9-1.9 2.1-2.2 1.6-.5 1.9-1.2 1.5-3-.3-1.3-.3-3 0-3.9.4-1.1 1.9-1.6 5.1-1.6 4.1 0 4.4-.2 4.1-2.2-.3-1.8-1.2-2.4-5.1-3.2-2.6-.5-4.6-1.4-4.4-2s3.4-1.2 7.1-1.4c4.8-.2 7.4.1 9.1 1.2 1.3.9 4.2 1.5 6.5 1.5 2.8 0 4.6-.6 5.5-1.8 1.1-1.5 1.6-1.6 3.4-.5s2.1 1 2.1-.7c0-1.1-.5-2.3-1.1-2.6-.6-.4-4.8-.6-9.3-.5-5.8.1-8.7-.3-10.1-1.3-1.9-1.4-1.9-1.5.5-2 1.4-.3 3.8-.7 5.5-.8 2.5-.2 3-.7 3-2.8 0-1.4 1-3.3 2.2-4.2 1.2-1 2.8-1.8 3.6-1.8s2.3-.9 3.3-2.1 4-3.2 6.6-4.5c4.1-2.1 6.1-2.4 15-2.4 5.7 0 10.9.4 11.8.9.8.5 1.1 1.3.7 1.7s-5.4 1-10.9 1.3l-10.1.5-2.3 3.4c-1.3 1.9-2.3 4.7-2.3 6.3 0 2.3.5 2.9 2.2 2.9 1.3 0 3.7 1.7 5.9 4.2 3.3 3.7 3.9 4 4.5 2.4.4-1 .3-3-.2-4.5-.6-1.8-1.7-2.6-3.2-2.7-1.2 0-2.9-1-3.8-2.2l-1.6-2.2h18.2l-.6 2.5c-.5 2-.3 2.5 1.3 2.5 1.1 0 3.8-.9 6.1-2 2.7-1.3 4.2-2.7 4.2-3.9 0-1 .6-2.1 1.4-2.4s2.1.4 2.9 1.6c1.4 2.1 1.5 2.1 3.4.4 1.5-1.3 3.7-1.8 9.1-1.8 3.9 0 8.3.5 9.7 1.2 1.4.6 2.8 2 3.2 3.1.3 1.1 0 3.8-.7 6.1s-1.9 4.5-2.6 4.9c-.8.5-1.3 3-1.3 7 0 3.5-.7 7.3-1.5 8.7s-1.4 4.8-1.5 7.6c0 2.8.5 5.6 1.1 6.2.9.9.8 1.5-.1 2.7-.7.9-1.1 1.8-.9 2s2 1.5 4 2.9 4.6 2.8 5.8 3.2c1.4.5 2.5.2 3.1-.7.5-.7.9-2.4.9-3.7s-.7-2.9-1.6-3.6-1.3-1.7-.9-2.4c.4-.6 1.8-1.2 3.1-1.2 1.6 0 2.8-.9 3.9-3 .8-1.7 1.1-3.2.6-3.6-.5-.3-.9-1.8-.9-3.3 0-2 .9-3.4 3.2-5.1 1.8-1.3 4.3-3.7 5.7-5.3 1.3-1.6 3.9-3.6 5.8-4.4 1.8-.8 3.3-1.8 3.3-2.4 0-.5 1-1 2.3-1s3.9-1.6 5.9-3.5c3.2-3.1 3.8-3.3 5.5-2.1 1.4 1 2.3 1.1 3.2.3s1.6-.7 2.5.1c.6.6 2 1.2 3 1.2s1.8-.7 1.8-1.5-1-2.9-2.2-4.5c-1.7-2.3-2-3.4-1.1-4.7.6-.9 1.9-1.7 3-1.7 1 0 2.9-.6 4.1-1.2 1.2-.7 3.7-1.2 5.6-1.2s4 .7 4.7 1.5 2 1.5 2.9 1.5 2.6.7 3.8 1.5 2.8 1.2 3.6.9 2.4-.1 3.5.5c1.7.9 2.2.7 3.2-1 .9-1.7.8-2.5-.5-3.8-.9-1-1.6-3.3-1.6-5.2s-.6-5.1-1.4-7.2c-1.2-3.4-1.2-3.9.5-4.8 1-.5 2.5-1 3.3-1s2.1.9 2.8 1.9c.7 1.1 2.7 2.1 4.3 2.2 1.8.2 3 .9 3 1.8s-1.1 1.6-2.8 1.8c-1.5.2-2.7.6-2.7 1s1.4 2.2 3 4.1 2.7 3.8 2.4 4.2c-.3.5-1.3.8-2.3.8s-2.4.6-3 1.4c-.7.8-1 3.1-.9 5.2.3 3 .7 3.8 2.3 3.8s2-.6 1.8-2.8c-.1-1.5.2-2.8.6-2.8.5 0 1 1.7 1.3 3.8.3 2.3 0 4.3-.9 5.3-.8.9-1.4 2.1-1.4 2.8 0 .6-.6 1.2-1.4 1.2s-1.7.4-2 .9-.1 2 .4 3.2c.9 2.3.9 2.3 2.1-1 .7-1.8 1.7-3.1 2.3-2.9s1.3 1.5 1.4 2.8 1.3 4.4 2.5 6.7l2.2 4.3-2.2 3.9c-1.2 2.1-2 4.6-1.6 5.5.3.9 1 1.6 1.4 1.6.5 0 1.1.9 1.4 1.9.3 1.1.3 3.1 0 4.5-.4 1.4-1.2 2.6-2 2.6s-1.5-1.2-1.6-2.7c-.2-1.8-1-2.8-2.3-3.1-1.1-.2-2.6-.5-3.4-.8-1.1-.4-1-.9.6-2.7 1.1-1.2 1.8-3 1.6-4-.3-1.3-1.4-1.8-4.2-1.8-3.5 0-4.5-.8-12.9-9.5-5.5-5.7-9.9-9.5-11.1-9.5-1.1 0-2.4-.7-2.9-1.6s-1.8-1.4-2.8-1.2c-1.4.3-2 1.4-2.2 3.9-.3 3.1.4 4.2 5.2 9.2 3.1 3.1 5.5 6.4 5.5 7.3 0 1.4-.6 1.2-3.5-1-2-1.5-4.2-2.5-5-2.2s-1.5 1-1.5 1.6c0 .5.9 1.5 2 2 1.1.6 1.7 1.7 1.4 2.5s-2.1 3.1-4 5.2c-1.9 2-3.4 4.2-3.4 4.9s.8 1.8 1.7 2.6 2.9 3.3 4.4 5.7 2.5 4.9 2.3 5.7c-.3.7-2.3 2.1-4.6 3-3.9 1.6-4.1 1.5-6.3-.5-2-1.9-2.3-1.9-2.9-.5-.3.9-.6 2.4-.6 3.3s1.7 3.5 3.9 5.8c2.1 2.3 5.7 5.1 8 6.4 3.5 2 4.3 2.1 5.7 1s1.8-1.1 2.5.1c.5.8.9 3.1.9 5.1s-.3 4.4-.6 5.2c-.5 1.2-1 1.3-2.6.5-1.5-.8-2.7-.7-4.5.2-2.1 1.1-2.9 1-5.6-.3-1.8-.9-4.1-1.8-5.2-2-1.4-.2-2.1-1.2-2.3-3.6-.2-1.8-1-3.6-1.9-3.9-.8-.3-1.9 0-2.4.8-.7 1.1-1.2 1-2.7-.4-1-.9-2.8-1.7-3.9-1.7s-2.6.7-3.3 1.5-2 1.5-2.9 1.5-2.5-.7-3.6-1.5c-1.3-1-4.4-1.5-9.5-1.5-6.8 0-7.8-.3-10-2.6-2.3-2.4-2.3-2.7-.8-3.8.9-.7 1.7-2.3 1.7-3.5s-1.1-3.1-2.5-4.2-3.2-3.3-4-4.9c-1.3-2.4-2.1-2.9-5.3-2.9-2.4 0-4.8.8-6.5 2.1-2.2 1.7-2.6 2.9-2.6 7 0 3.1.5 5.1 1.2 5.3s2.9.7 4.8 1c2.5.4 3.9 1.3 4.7 3.1 1 2.1.9 2.6-.5 3.1-.9.3-2.9-.1-4.4-1s-3.5-1.6-4.3-1.6-1.8.7-2.1 1.6c-.6 1.5-.8 1.5-2.4 0-1-.9-3.2-1.6-5-1.6-2.2 0-3.9.8-5.4 2.6-1.2 1.4-2.6 3.4-2.9 4.4-.5 1.4 0 2.1 2.2 2.8 2 .7 3 1.9 3.5 4.1.4 1.7 1.2 3 1.8 2.8s1.3-1.2 1.4-2.3c.2-1.1.5-2.9.8-4.2.3-1.2.9-2.2 1.4-2.2s1.2 2 1.6 4.5 1.3 5 2.1 5.6c.9.8 1.4 3.3 1.4 7.3 0 3.4.5 6.7 1.1 7.3s1.7.9 2.5.6c.9-.4 1.4-2.3 1.4-5.9 0-4.8.2-5.4 2-5.4 1.1 0 3.4 1.4 5.1 3.1 2.6 2.7 3 3.6 2.4 6.6-.6 3.3-.5 3.5 1.7 2.8 1.3-.4 3.5-1 5-1.2 2.4-.5 2.8-.2 3.4 3.1.5 2.8.3 4.1-1.2 5.7-1.7 1.9-1.7 2.1-.1 3 1.1.6 1.7 2.2 1.7 4.5 0 2.8-.4 3.5-1.8 3.2-1.1-.2-1.9-1.4-2.1-3.1-.2-1.5-1-3.6-1.8-4.5s-2.6-3.1-4-4.9-3-3.2-3.5-3.2-.9 1.2-.9 2.6c0 1.5 1.5 4.4 3.5 6.9 1.9 2.3 3.5 5.4 3.5 6.8s.2 2.7.5 3 2.1 0 4-.7 3.9-1.6 4.4-2.1 1-3.6 1.2-6.9c.3-5.1.6-6.1 2.6-7 1.2-.5 2.2-1.5 2.2-2.1s.7-1.7 1.6-2.4c1.3-1.1 2.6-.8 7.9 2l6.3 3.2.4 7c.3 5.3.8 7.3 2.1 8 .9.5 1.7 2.2 1.7 3.7s.4 3.4.9 4.2c.8 1.3 1 1.3 1.4 0 .3-.8.6-3.3.8-5.5.2-2.5.8-4 1.6-4 .7 0 2.1 2 3.1 4.5l3.1 8c.7 1.9 1.5 5.9 1.7 8.8.3 3.5 1 5.5 1.9 5.9.8.3 1.9-.1 2.4-.8.5-.8.9-5.1.9-9.6s.5-8.5 1-8.8c.6-.3 1.3.1 1.6.9s.7 6.8.7 13.2c.1 7.3.6 11.9 1.2 12.1s1.6-.9 2.3-2.4c1-2.2 1.4-2.4 2.2-1.3.5.8.9 2.6.9 4.1 0 1.4.7 3.2 1.5 3.9s1.5 2.2 1.5 3.3-.7 2.6-1.7 3.2c-.9.7-1.3 1.7-.9 2.4.4.6 1.7 1.2 3 1.2s3.1 1.2 4.4 2.9c1.9 2.5 2 3.1.7 4.1-1.3 1.1-1.3 1.4 0 2.9.8.9 1.5 2.8 1.6 4.1 0 1.3.7 3.3 1.5 4.4s1.5 3.4 1.5 5.1c0 1.9.8 3.9 2.1 5 1.2 1 2.5 2.7 3.1 3.7.7 1.3.5 2.7-.6 4.9-.9 1.7-1.6 4.1-1.6 5.4s.5 2.6 1 2.9 1 2 1 3.6c0 2 .4 2.9 1.2 2.6.7-.2 1.5-2 1.8-4 .3-2.1 1.6-4.5 3-5.6l2.4-2 .9 5.6c.7 4.7.6 5.8-.8 6.8-.9.7-1.6 1.5-1.6 1.9s1.6 2.1 3.5 3.7 3.5 3.8 3.5 4.7-1 3.4-2.1 5.6c-2.1 3.9-2.1 4-.2 5.5 1.4 1.1 2.1 3.3 2.5 7.8.4 4.8.2 6.6-.9 7.7-.8.8-3 1.5-4.9 1.5-2.3 0-4.2-.8-5.9-2.5-2.4-2.4-2.5-3.2-2.6-12.2 0-5.3-.5-10.4-1-11.2-.9-1.3-1.2-1.2-2.5.4-1.1 1.4-1.5 4.6-1.5 11.8 0 7.8-.3 9.8-1.4 9.8-.8 0-2.1-.7-2.9-1.5s-2.2-1.5-3.1-1.5-2.3-1.7-3.3-3.8c-.9-2.1-2-5.2-2.3-7s-1-3.4-1.5-3.5-1.1 2.3-1.3 5.4c-.3 4.8 0 5.7 1.6 6.1 1.7.5 1.8 1 1 6.5-.6 3.8-.5 6.9.1 8.6.9 2.4 1.5 2.7 6 2.7 4.8 0 5 .1 7.5 4.6 1.4 2.5 2.6 5.7 2.6 7s-1.3 4.8-3 7.9c-2 3.8-3 7-3 9.9 0 3-.5 4.6-1.6 5s-1.5 1.6-1.2 3.9l.3 3.3 6.4-.3c4.6-.2 6.8-.8 7.7-2 .7-.9 1.4-1.2 1.5-.7s.3 2.4.5 4 .4 4 .4 5.3-.7 3.2-1.7 4.2c-1.7 1.9-1.6 2 1.1 4.6 2.3 2.1 3.2 2.4 4.6 1.5 1-.6 2-1.1 2.2-1.1s.6.9.9 1.9c.4 1.4-1.8 4.2-8.3 10.7-6.6 6.6-8.5 9.1-7.8 10.1.6.7 1.8 1.3 2.8 1.3s2.3-.7 3-1.5 2.4-1.5 3.9-1.5 4.8-1.2 7.5-2.6c2.8-1.5 5.8-2.4 7-2.1s3.1.8 4.4 1.2c1.8.6 2.2.3 2.2-1.2 0-1.1 3.2-5.2 7.2-9.1 3.9-4 7.8-7.2 8.5-7.2s1.3 1.1 1.3 2.4.7 2.9 1.5 3.6c1.4 1.1 1.3 1.5-.2 3.1-1.6 1.7-1.6 2 .1 3.8 1 1.1 1.6 2.7 1.4 3.7s-1.2 2-2.2 2.2-2.6-.3-3.5-1.2c-1.1-1-2.2-1.2-3.1-.6s-1.4 2.4-1.3 5.1c.1 3-.3 4.6-1.5 5.5-1.5 1.1-1.4 1.4 1.6 2.4 2 .7 3.7 2.2 4.3 3.7.8 2 1.2 2.3 2.4 1.3.9-.7 2.6-.9 4.5-.5 2.4.5 3.2.3 3.7-1.2.4-1 1.3-2.6 2.1-3.5 1-1.1 1.1-1.9.3-2.3a2.75 2.75 0 0 1-1.1-2.1c0-.8.9-1.4 1.9-1.4 1.1 0 3.1 1 4.4 2.3s2.6 3.4 2.8 4.7c.3 1.9 1.1 2.6 3.3 3s3.1 1.1 3.3 3c.2 1.4 1.5 3.5 2.8 4.7s2.9 2.3 3.3 2.3 2.1 1.1 3.6 2.5 3.7 2.5 5 2.5c1.7 0 2.4.7 2.9 2.9.4 1.6 1.3 3.2 2.1 3.5 1.1.4 1.4 2.8 1.4 11.1v10.5l-3 1.6c-2.2 1.1-3 2.3-3 4.3 0 2.2-.8 3.1-4.2 4.9-2.3 1.2-5.1 2.4-6.1 2.7s-1.6 1.2-1.4 1.9 1.7 1.4 3.3 1.6 3.3.7 3.9 1.2c.5.5 2.2.9 3.6.9 1.5 0 3 .7 3.3 1.6s.6 2.6.6 3.9.7 2.9 1.5 3.5c1 .8 1.5 3 1.4 6.9 0 5-.4 5.9-2.9 7.9l-2.9 2.2-5.1-2.6c-2.8-1.5-5.1-3.3-5.1-4.1s-2.8-4.3-6.1-7.8c-5.1-5.3-6-6.8-5.5-8.8.3-1.4 1.4-2.7 2.4-2.9 1.5-.4 1.5-.5.1-.6-.9-.1-1.9-.8-2.3-1.7-.3-.9-.4-2 0-2.5.3-.5 2-.9 3.8-.9 2 0 4-.8 5.1-2.1 1.5-1.6 1.6-2.4.7-3.8-.6-.9-1.7-1.5-2.5-1.3-.7.2-2.4.6-3.6.9-1.3.3-3-.2-4-1.1-1.4-1.2-5-1.7-16.7-2l-16.5-.5c-.8 0-4.7.3-8.5.7l-7 .7-.3 4.2c-.3 3.9-.1 4.2 2.8 4.8 1.7.4 3.1 1 3.1 1.5s-1.3 1.1-2.9 1.5-3.5 1.3-4.1 2.1c-.7.8-1.9 1.5-2.8 1.5s-2.8 1-4.3 2.2c-1.4 1.2-2.9 3.2-3.3 4.5s-1.5 2.2-2.7 2.2c-1.1 0-3.4.7-5.1 1.6-2.4 1.2-3.6 1.4-5.5.5-1.7-.8-3-.8-4.8 0-1.3.6-3.1.8-4 .5-1-.4-1.6-1.8-1.6-4.1 0-1.9-.4-3.7-.9-4s-1.6-.3-2.5 0-1.6 1.3-1.6 2.2c0 1.3-.3 1.3-1.9-.2-1.1-1-2.7-1.6-3.8-1.5-1 .2-3.1 0-4.6-.4s-2.8-1.3-2.8-2 .9-2 2-3c1.1-.9 2-2.4 2-3.2a1.54 1.54 0 0 1 1.5-1.5c.8 0 1.5-.8 1.5-1.9 0-1-1.1-2.6-2.5-3.5s-2.9-1.6-3.5-1.6-1 1.5-1 3.2c0 1.8-.4 3.9-.9 4.6-.7 1.1-1.3 1.1-3.4-.3-1.4-.9-2.8-2.9-3.2-4.4s-1.3-3.4-2.1-4.3c-1.1-1.3-1.4-4.1-1.2-12.5.2-8.9.6-10.9 1.8-10.9.9 0 1.6 1.1 1.8 3 .2 1.6.5 4.1.8 5.5l.6 2.5 1.8-2.4c1-1.3 2.3-2.1 2.9-1.7s1.1 2.2 1.1 4c0 2.7 1 4.2 5 7.9 3.6 3.4 5.8 4.6 7.9 4.6 1.9 0 3.5.8 4.5 2.1 1 1.4 2.2 2 3.6 1.6s2.4.1 3.1 1.4c.9 1.6 2.2 1.9 8.8 1.9 5.3 0 8.4.5 9.7 1.5 1.1.8 2.7 1.5 3.7 1.5s1.8-.2 1.8-.5-.7-1.6-1.6-3c-1.3-2-2.4-2.5-6.2-2.5-2.5 0-5.9-.7-7.5-1.5s-4.4-1.5-6.3-1.5c-2.4 0-4.7-1-7.4-3.2-2.2-1.7-4.2-4-4.5-5s.2-3.3 1.2-5.1 2.2-3.8 2.7-4.5c.6-.9 2.6.4 7.3 4.8 3.5 3.3 6.8 6 7.3 6s1.4-.7 2-1.5c1-1.2.4-2.3-3.3-6.2-3.2-3.5-4.7-6-5.2-9-.4-2.3-1.1-4.5-1.6-4.8s-.9-2.4-.9-4.7c0-2.4-.7-4.9-1.6-5.9-1.5-1.7-1.5-2.1 0-5.2.9-1.9 1.6-4.1 1.6-4.9s-.9-2.6-2.1-4.1c-1.9-2.4-2.6-2.6-9.9-2.6-4.3 0-8.1.5-8.5 1s-1.7 1-3 1-3-.8-3.7-1.8-2.1-2.1-3.1-2.5-2.8 0-4.2.9c-2.1 1.4-2.7 1.4-6.2-.1s-3.9-1.5-5 0c-.7.9-.9 2.3-.6 3.1.4 1.1 1.5 1.3 4.4.8 3.2-.5 3.9-.4 3.9 1 0 .9-1.2 2.1-2.6 2.6l-2.6 1 2.7 3.2 2.7 3.2-.5 18.6c-.4 15.7-.8 19-2.3 21.5-1 1.6-2.7 4-3.8 5.2-1.9 2.1-1.9 2.4-.4 3.9s1.7 1.4 2.9-1c.7-1.5 1.7-2.5 2.3-2.3s1.2 1.3 1.4 2.5c.2 1.3-.5 2.5-1.8 3.2-1.1.6-2.1 1.7-2.1 2.4s.9 2 1.9 2.7c1.1.8 2.1 2.2 2.2 3.2.2 1-.5 2.4-1.4 3-1.4.9-2 .7-3.2-.9-.8-1.1-1.8-1.7-2.1-1.3-.4.4-.4 1.8-.1 3 .5 2 1.2 2.3 5.2 2.3 2.9 0 4.9-.6 5.5-1.5.5-.8 1.2-1.2 1.6-.8s0 2.1-.9 3.9c-.8 1.8-1.3 3.8-1 4.5s1.5 1.3 2.8 1.3 3-1 3.9-2.5c.9-1.4 2.5-2.9 3.6-3.5 1.4-.8 2.6-.8 4 0 1.1.6 2 1.9 2 2.9 0 1.1-1.1 2.3-2.8 2.9-1.5.6-3.6 1.7-4.6 2.5s-2.2 2.7-2.6 4.3c-.5 1.9-1.5 3-3.1 3.2-1.3.2-4.3 2.3-6.8 4.8-3 2.9-5.4 4.4-7.1 4.4-1.5 0-3.5.7-4.6 1.5s-3.3 1.5-5 1.5-3.9.7-5 1.5-2.7 1.5-3.6 1.5-2.2.7-2.9 1.5c-.8.9-2.9 1.5-5.6 1.5-2.4 0-4.6.5-5 1.1s-.1 1.5.7 2 7.1.6 14 .2l12.7-.6 2.9 3.2 2.9 3.2 3.9-3.1c2.2-1.7 4.3-3.8 4.7-4.5.4-.8 1.5-1.4 2.2-1.4a1.54 1.54 0 0 1 1.5 1.5c0 .9.9 1.5 2.5 1.5 1.4 0 2.5-.4 2.5-1 0-.5-1.1-1.3-2.5-1.6-1.9-.5-2.5-1.3-2.5-3.3 0-1.8.9-3.4 2.8-4.7 2.1-1.6 3.3-1.8 4.9-1.1 1.2.5 3.3.7 4.6.4 1.9-.5 2.3-1.1 1.9-3.1-.3-1.4-.2-3.2.2-4.2.6-1.5.8-1.5 2.4-.1 1 .8 2.9 1.9 4.2 2.3 1.4.4 3 1.5 3.7 2.3 1 1.4 1.8 1 6.2-3.1 4.5-4.2 5.6-4.7 9.5-4.7 3 0 4.6.5 5 1.5.3.8.1 2.6-.6 4-.9 1.9-.8 3.5.2 6.7.7 2.3 2.4 5.5 3.8 6.9 1.4 1.5 3.4 2.8 4.6 3 1.1.2 2.6 1.3 3.2 2.5s1.4 1.9 1.8 1.6c.4-.4.7-2.8.7-5.4s.3-5.5.6-6.3c.3-.9 1.3-1.6 2.2-1.6s2.7-1.4 4.2-3.1c2.5-3.1 2.7-3.1 6.8-1.8 3.4 1 4.2 1.7 4.2 3.5 0 1.3.5 2.6 1.1 2.9.6.4 1.9-.1 2.9-1 1.3-1.2 2.7-1.5 4.8-1.1 2.4.5 2.8 1.1 2.5 3-.2 1.3.1 2.7.7 3.1.7.4 1.6.3 2.1-.2.6-.6.5-1.9-.2-3.6-.9-2.1-.9-2.9.1-4.2.7-.8 1.8-1.5 2.5-1.5s2.3.8 3.5 1.8c1.5 1.2 2.5 3.4 2.9 6.2.4 3.3 1.1 4.5 2.5 4.8 1.1.2 2.5-.4 3.2-1.4 1.2-1.6 1.5-1.5 4.5 1 1.8 1.5 4.3 3.1 5.5 3.6 1.3.5 2.9 2.5 3.8 4.4 1 2.4 2.1 3.5 3.5 3.5 1.1 0 2.1.6 2.2 1.2.1.7 0 2 0 2.8-.1.9.5 2.2 1.4 2.9.8.7 1.5 2.2 1.5 3.3s1.1 3.2 2.4 4.6 3.8 5.3 5.5 8.6 4.2 7.1 5.6 8.4 2.5 3.1 2.5 4 1.1 2.7 2.4 4c1.4 1.3 3.1 2 4 1.7 1.3-.5 1.6-2.8 1.6-13.7v-13.1l2.8.3 2.8.3v40h15l.3-301.4-1-302.2c.9-.8-26.7-1.2-59.7-1.2s-60.6.4-61.4.9-1.1 1.4-.7 2 1.2 1.1 1.9 1.1 2.1 1 3.3 2.2 2.5 3.3 2.9 4.7 2.1 3.6 3.6 5c1.6 1.4 2.9 3.1 2.9 3.8s-.6 1.3-1.4 1.3-3.2-2-5.5-4.5-4.1-4.9-4.1-5.5-2.3-3.3-5.1-6c-4.7-4.6-5.5-5-9.9-5s-4.9.3-5.7 2.8c-.5 1.5-.6 6.7-.3 11.5.5 6.4 1.1 9.2 2.4 10.7 1.4 1.6 1.7 2.8 1.1 5.8-.7 3.6-.8 3.7-2.1 1.8l-2.4-3.2c-.6-.7-3.5-1.2-6.8-1.2-3.5 0-6.5-.6-7.7-1.5-1.1-.8-2.7-1.5-3.6-1.5-1.3 0-1.8 1-2 5.2-.3 5.1-.4 5.2-3.3 5.2-2.7 0-3.1.4-3.5 3.5-.4 2.7-1 3.6-2.8 3.8-1.4.2-2.5-.3-2.9-1.3s.3-2.3 1.6-3.4c2-1.6 2.1-2.3 1.3-5.7-.6-2.5-1.6-4-2.7-4.3-1-.2-2.9-.1-4.2.3-2.1.5-2.3.9-1.4 2.6.6 1.1.9 3.5.8 5.2-.3 2.7-.9 3.4-3.8 4.3-1.9.6-3.6 1.8-3.8 2.6s.4 2.1 1.3 2.8c1.4 1.1 1.1 1.6-2.6 3.7-2.3 1.3-4.5 2-5 1.6-.4-.4-.8-1.5-1-2.3-.1-.8-.1-2.5-.1-3.7.1-1.3 1-2.4 2.4-2.9 1.2-.4 3-1.4 4-2.2s1.8-2.8 1.8-4.4.9-3.6 2-4.5c1.9-1.7 1.9-1.7-1.1-3-1.7-.7-3.5-1.3-3.9-1.3-.5 0-1.1.9-1.5 2.1-.5 1.5-1 1.8-1.8 1-.6-.6-1.9-1.1-2.8-1.1s-2 .7-2.3 1.6-.6 2.7-.6 4-.6 2.4-1.2 2.4c-.7 0-2.5.7-4 1.4-2.1 1.1-2.8 1.1-2.8.2 0-.7-1.1-2.8-2.5-4.6s-2.5-4.5-2.5-5.9-.8-3.4-1.8-4.5c-1.7-1.9-1.7-2 1.1-1.5 1.6.3 4.3.1 6-.5s3.8-1.2 4.7-1.5c1.2-.3 1-.8-.8-2.3-1.9-1.5-2.2-2.8-2.2-7.7 0-3.2.5-6.4 1.1-7s.8-1.6.5-2.2c-.5-.5-15.4-.9-46.3-.9-44 0-45.8 0-49.9 2-2.3 1.1-5.4 3.1-6.7 4.4-1.7 1.6-4.3 2.5-8.2 3-3.3.4-6.8 1.5-8.2 2.6s-4.1 2.2-6.1 2.6c-2 .3-5.1 1.3-6.9 2.3S475 26 475 26.7s-.7 1.3-1.5 1.3-1.5.6-1.5 1.3-.9 2-2 3c-1.1.9-2 2.5-2 3.4 0 1-1.9 3.5-4.2 5.6s-4.8 3.6-5.6 3.3-2.4 0-3.6.6-3 2-4 3-2.8 1.9-4.1 1.9-2.6.7-2.9 1.5-1.4 1.5-2.5 1.5c-1 0-2.5.7-3.2 1.5s-1.9 1.5-2.6 1.5c-.8 0-4.8 3.2-8.9 7.2s-7.5 7.8-7.5 8.6-4.2 5.7-9.2 10.9l-14.6 14.6c-3 2.8-9 8.9-13.5 13.4-6.7 6.9-8.6 8.2-11.2 8.2-1.7 0-3.7.7-4.4 1.5s-2.1 1.5-3.2 1.5-5.1 3.2-9.4 7.5c-4.1 4.1-8 7.5-8.7 7.5s-1.6-.3-2-.7 3.5-4.9 8.5-10c6-6.1 9.9-9.3 11.4-9.3 1.2 0 2.7-.7 3.4-1.5s2.2-1.5 3.4-1.5 3.1-.6 4.2-1.2c1.1-.7 7.1-6.2 13.2-12.2C393 94.4 398 88.8 398 87.9s7.5-9.1 16.7-18.3 17.7-16.9 19-17.2 2.8-1.2 3.4-2 2.1-1.4 3.3-1.4 2.7-.9 3.4-2 2.2-2 3.3-2 3.2-1.3 4.6-3c1.9-2.2 3.4-3 5.8-3 1.9 0 4-.8 4.9-1.8s1.7-2.2 1.7-2.8c0-.5 1.1-2.2 2.5-3.7 1.3-1.5 2.7-2.8 3-2.8s1.7-1.2 3-2.8c1.4-1.5 3.3-3.7 4.2-4.8s3.7-3 6-4.2c2.4-1.2 5.3-2.2 6.6-2.2s2.9-.7 3.6-1.5c.8-.9 3.5-1.6 7.4-1.8 4.7-.2 6.2-.7 6.2-1.8-.1-1.1-26.4-1.3-229.6-1.6"/><path class="yak" d="M622.8 7c-4.5 0-6 .4-6.5 1.6-.3.9-.1 3.2.6 5.1 1 2.9 1 3.6-.1 4.4-.7.5-1.8.9-2.3.9s-.4.6.2 1.2c.7.7 1.2 2.5 1.2 4 0 1.6.7 3.1 1.6 3.4s2.1.1 2.7-.5 2-1.1 3.1-1.1 2.7.7 3.7 1.5c1.5 1.4 1.9 1.2 4.4-2l2.7-3.5-3.3-.8c-2.9-.7-3.3-1.3-3.6-4.6-.2-2.2.3-4.7 1.2-6.1.8-1.3 1.2-2.6.9-2.9-.4-.3-3.3-.6-6.5-.6m32.4.2c-1.3-.2-2.4.3-2.8 1.3-.3.9-.4 1.9 0 2.2.3.3 1.8.3 3.2-.1s2.4-1.2 2.2-1.9c-.3-.7-1.4-1.3-2.6-1.5m-14.7 1c-1.7 0-2.2.2-1.2.5s2.3.2 3 0-.1-.5-1.8-.5m-45 2.8c-1.6 0-2.5.6-2.5 1.5s.9 1.5 2.5 1.5 2.5-.6 2.5-1.5-.9-1.5-2.5-1.5m73 3c-1.2-1-1.6-.9-2.1.4-.4.9-.2 2.1.3 2.7.6.6 1.4.5 2.1-.4 1-1.1.9-1.7-.3-2.7m-24.1 1c-1.5 0-2.3.4-1.9 1 .3.5 1.5 1 2.6 1s1.9-.5 1.9-1c0-.6-1.2-1-2.6-1m-44 1c-.6 0-1.9.9-2.9 2s-1.3 2-.7 2 1.4.9 1.7 1.9 1.5 2.1 2.7 2.4c1.1.3 2.7.3 3.5 0s1.4-1.6 1.4-2.9-1-3-2.2-3.9c-1.3-.8-2.9-1.5-3.5-1.5m35.7 1.2c-.7-1.1-1-1-1.5.3-.4.9-.6 2.1-.6 2.6s.7.9 1.5.9 1.5-.6 1.5-1.2c0-.7-.4-1.9-.9-2.6M566 18c-1 0-2.2.5-2.6 1.1s-.1 1.5.6 1.9c.7.5 2.1.4 3.2-.2 1-.5 1.6-1.4 1.2-1.9-.3-.5-1.4-.9-2.4-.9m10 .5c-.5-.3-1 .1-1 .9s.5 1.6 1 1.6 1-.4 1-.9-.5-1.3-1-1.6m8.4 2.5c-1.3 0-2.6.5-2.9 1s-.3 1.5 0 2 1.7 1 3 1 2.6-.6 2.9-1.4.3-1.7-.1-2-1.7-.6-2.9-.6m61.3 4.8l-3.3-3.7-2.9 2.3c-2.9 2.3-2.9 2.3-.7 3.4 1.2.6 2.1 2 2.1 3s.4 2.2 1 2.5c.5.3 2.2 0 3.7-.7s2.8-1.8 3-2.3c.3-.3-1.1-2.4-2.9-4.5m-10 3.5c-.4-.4-.7-.1-.7.7s.3 1 .7.7c.3-.4.3-1 0-1.4m-26.5 2.9c-1.9-.2-3.2.1-3.2.8 0 .6.7 2.2 1.6 3.6s2.5 2.5 3.6 2.5c1.6 0 1.9-.6 1.6-3.2-.3-3-.7-3.4-3.6-3.7M706 34c-.3 0-1.4.6-2.3 1.3-1.6 1.2-1.5 1.7 1.2 7.2 1.6 3.3 3.2 6.8 3.5 7.7.3 1.1 1.5 1.8 3.1 1.8 2 0 2.5-.5 2.5-2.4 0-1.3-.4-2.7-1-3-.5-.3-2.2-3.3-3.7-6.6s-3-6-3.3-6m-21 6c-.7 0-1 .3-.7.7.4.4 1 .4 1.3 0 .4-.4.1-.7-.6-.7m3.5 10a.47.47 0 0 0-.5.5.47.47 0 1 0 1 0 .47.47 0 0 0-.5-.5M480 53c-3 0-4.4.8-7.7 4.2-2.2 2.3-4.3 5-4.7 6-.3 1-1.5 1.8-2.6 1.8-1.2 0-5.4 3.7-10.8 9.5-6.1 6.5-9.5 9.5-11 9.5s-2.4.8-2.8 2.4c-.3 1.3-3.2 5-6.5 8.2-4.5 4.5-5.6 6.1-4.8 7.1.6.7 1.8 1.3 2.6 1.3s4.7-3.1 8.7-7c5.2-5 9.9-8.4 16.8-12 5.3-2.7 9.8-4.7 10.2-4.3.3.3.6 1.9.6 3.4 0 1.7.8 3.3 2 4.1 1.1.7 2 2 2 2.8 0 .9-1.3 2.6-3 3.8-1.6 1.2-4.3 2.2-6 2.2-2.3 0-3.3.6-3.9 2.2-.5 1.2-2.3 3.3-4 4.6s-4.8 2.6-6.7 2.9c-2 .3-4.6 1.6-5.9 2.8s-2.4 3.1-2.4 4.1c0 1.1-1.8 3.3-4.1 5.1s-6.1 3.9-8.6 4.9c-3.8 1.5-4.4 2-4 4.1.3 1.8-.1 2.6-1.8 3.3-1.2.5-2.5 1.6-2.8 2.4-.3.9-1.7 1.6-3 1.6s-2.7.3-3 .7c-.4.4.1 1.5 1 2.5 1.6 1.7 1.4 2.1-3.2 6.1-2.6 2.3-5.8 4.6-7 5.1-1.6.6-2.4 1.8-2.7 4.5-.3 2 0 4.3.5 5s1.6 1.2 2.4 1.2 2.5-1.2 3.8-2.6c2-2.1 2.7-2.4 4.4-1.5s2.6.6 5.4-1.9c1.9-1.7 4-3 4.8-3s2.4-.9 3.7-2c1.8-1.5 2.1-2.3 1.3-3.8-.6-1.1-.7-2.2-.4-2.5s1.7-.6 3-.6 4-1.5 6.1-3.3 4.5-3.6 5.4-3.9 2.3-1.8 3-3.3 2.2-3.2 3.1-3.8c1.5-.9 2.2-.7 3.7 1.2 1 1.2 2.8 2.2 3.9 2.2 1.7 0 2.1-.6 2.1-3.1 0-1.7.5-4 1.1-5.1.9-1.6 1.4-1.8 2.5-.8 1.1.9 2.2.8 4.8-.4 2-.9 6-1.6 9.5-1.6 4.5 0 6.1-.4 6.1-1.4 0-.8-1-1.7-2.2-2s-3.7-.6-5.4-.6c-3.2 0-3.2 0-1.8-2.8 1.1-2.2 2.3-2.9 5.7-3.2 2.9-.3 4.3-1 4.3-2 0-.9-1.1-1.6-2.8-1.8-1.6-.2-2.6-.8-2.4-1.5.2-.6 1-1 1.7-.9.7.2 2.4 0 3.9-.3 2-.5 3.3-2.1 5.6-7.1 2.4-5.2 3.5-6.6 5.8-7.1 1.5-.3 3-.9 3.2-1.4.3-.4-.1-1.2-.8-1.8s-3.3-1.2-5.7-1.4c-3.7-.3-4.5-.7-4.8-2.5-.2-1.4.6-2.8 2.4-4 1.5-1 4-3.1 5.6-4.8 2-2 2.8-3.7 2.6-5.5-.3-2.5-.5-2.6-6.2-2.2-3.2.2-7.3 1-9.1 1.7-2.7 1.1-3.6 1.1-5 .1-1.2-.9-1.5-1.9-1-3.5.4-1.2 2.1-2.9 3.9-3.6 1.7-.7 4-2.2 4.9-3.2 1-1.1 1.4-2.2 1.1-2.6-.6-.6-2.6-.9-4.6-.9m233.9 4c-1.1 0-1.9.5-1.9 1s.9 1 2 1c1.6 0 2 .7 2 3.5 0 1.9.5 3.5 1 3.5.7 0 .8-1.4.4-3.8-.4-2.1-.9-4.1-1.1-4.5s-1.3-.7-2.4-.7m6.4 10.3c-.7-.2-1.4 1.3-1.8 4-.4 2.4-.5 5.5-.3 6.8s1 2.4 1.8 2.4c1.2 0 1.5-1.4 1.5-6.4 0-4.1-.4-6.6-1.2-6.8M557.8 81c-2.6 0-4.8.4-4.8.9s.4 1.2.9 1.5 3 .7 5.5.8 4.9-.2 5.3-.6.1-1.2-.7-1.7-3.6-.9-6.2-.9m166.6 3.3c-.6-.2-1.4 0-1.8.3-.4.4-.7 3.1-.7 6s.5 5.6 1.1 6 1.5.1 2-.7.8-3.6.6-6.3c0-2.7-.6-5.1-1.2-5.3m-246.8.7c-2.4 0-4.7.4-5 .9s-.2 1.1.2 1.3 2.7.2 5 0 4.2-.9 4.2-1.3c0-.5-2-.9-4.4-.9m249.7 14.3c-.7-.2-1.5.8-1.9 2.2-.4 1.8-.1 3.2 1 4.4.9 1 1.6 2.5 1.6 3.3 0 .9.7 2.1 1.6 2.9 1.3 1.1 1.7 1.1 2.5-.1.5-.8.9-2.2.9-3 0-.9-.9-2.4-1.9-3.4-1.1-1-2.1-2.7-2.2-3.8-.3-1.2-.9-2.3-1.6-2.5m-54.3 5.4c-1.8-1.8-3.1-2.4-3.5-1.6-.4.6.5 2.3 1.9 3.7 1.6 1.6 2.9 2.3 3.5 1.6.6-.5-.2-2-1.9-3.7m-58.6 5.3c-.9 0-1.3.5-.9 1 .3.6 1 .8 1.6.4.5-.3.9-.8.9-1s-.7-.4-1.6-.4m120.4 6.2c-.9-.2-1.9.1-2.3.7-.3.6.2 2.5 1.2 4.3s2 4.4 2.3 5.8c.3 1.6 1.3 2.6 2.8 2.8 1.3.2 2.5-.3 2.8-1.2.3-.8-.7-3.9-2.3-6.8-1.5-2.9-3.5-5.4-4.5-5.6m-45 5.9c-1.5-1.2-1.8-1.1-2.4.4-.4.9.1 3 1 4.5s1.7 4.1 1.7 5.7.8 3.7 1.9 4.6c1.4 1.2 2 3.6 2.4 8.7.3 3.9 1 7.5 1.6 8.2.6.6 1.1 3.3 1.1 6 0 3.4.5 5 1.5 5.4 1.2.5 1.5 2.6 1.5 10.2 0 6.9.5 10.2 1.5 11.6.8 1.1 1.5 3.6 1.5 5.7s.5 8.3 1.1 13.8c1.1 9.7 1.2 10 3.8 10.3 1.6.2 3 1.2 3.6 2.6.5 1.2 1.3 2.2 1.8 2.2.4 0 1.2-1.2 1.8-2.7.8-2 .7-2.9-.3-3.5-.7-.4-1.8-.8-2.4-.8s-1.4-.7-1.8-1.6-.6-8.2-.6-16.3c0-11.4.3-15.2 1.5-16.7.8-1.1 1.5-3.6 1.5-5.7 0-2-.7-5.4-1.7-7.5-.9-2.1-2.4-4.6-3.2-5.5-1.3-1.5-1.2-2 .1-3.5 1.1-1.2 1.3-2.2.6-3.4-.7-1.3-.3-2.3 1.6-4.2 1.4-1.4 2.5-3.1 2.5-3.9 0-.7-.5-1.8-1-2.4-.6-.6-1.4-3-1.8-5.5-.7-4.2-.9-4.5-4.5-4.9-2.8-.4-5.1-1.8-9-5.5l-6.9-6.3m28.8 1.9c-1.3 0-2.7.7-3 1.6s-.6 2.9-.6 4.5c0 1.7.6 3.2 1.5 3.5.8.3 1.5 1.8 1.5 3.3s-.7 3.3-1.5 4c-1.4 1.1-1.4 1.4 0 3 .8.9 1.5 2.6 1.5 3.8s1.3 3.6 2.9 5.5c2.2 2.5 2.7 3.7 1.9 5-.5.9-.7 2.2-.4 2.7s1.3 1 2.2 1 2.4.7 3.4 1.6 2.2 1.3 2.8.9 1.1-2 1.1-3.6 1.4-5.4 3.1-8.4c2-3.6 2.9-6.1 2.4-7.5-.4-1.1-1.7-2.8-3.1-3.6-1.4-.9-2.4-2.6-2.4-3.8s-1-3.2-2.2-4.3c-1.2-1.2-3.4-2.4-4.9-2.8-1.9-.5-2.8-1.5-3.2-3.6s-1.1-2.8-3-2.8m-165 6.2c-1.3-.6-2.7-.8-3-.5s-.6 1.8-.6 3.3 1 3.6 2.3 4.8 2.6 1.9 3 1.5.7-2.3.7-4.3c0-2.9-.5-3.9-2.4-4.8m-30.6.8c-.5 0-1 .4-1 1s.5 1 1 1 1-.4 1-1-.5-1-1-1m219.2 3.2c-1.9-.3-2.2.1-2.2 2.8s.3 3.1 2.2 2.8c1.6-.2 2.2-1 2.2-2.8s-.5-2.6-2.2-2.8M528 138c-1.7 0-3 .4-3 1s1.3 1 3 1 3-.4 3-1-1.3-1-3-1m34.2.8c-.6-.6-1.2-.6-1.6-.1-.3.5-.2 2.2.3 3.8l.8 2.9.8-2.8c.4-1.6.3-3.2-.3-3.8M341.8 141c-1.6 0-7.9 5.7-20.5 18.4-10 10.1-18.2 18.8-18.2 19.4a2.04 2.04 0 0 0 .9 1.6c.5.3 9.7-8.2 20.5-18.9l19.6-20c0-.3-1.1-.5-2.3-.5m226.9.2c-1.3-.3-1.7.1-1.5 1.5.2 1 1 1.8 1.8 1.8a1.54 1.54 0 0 0 1.5-1.5c0-.8-.8-1.6-1.8-1.8m176.6 5.1c-.7-.2-1.5.7-1.8 1.9-.3 1.3-.5 5.5-.3 9.3.2 5.8.6 7 2.1 7.3 1.6.3 1.8-.5 1.5-8.9-.2-6.1-.7-9.4-1.5-9.6M565.5 149a.47.47 0 1 0 0 1 .47.47 0 1 0 0-1m-2.3 5.4c-1.8-1.2-2.1-1.2-2.6.2-.3.9-.6 2.7-.6 4 0 1.4.6 2.4 1.4 2.4s1.7-.7 2-1.5c.4-1.1 1.6-1.3 5-.9 3.5.5 4.5.3 5-1.1.4-1.1-.1-1.9-1.6-2.5-1.2-.5-3.2-.5-4.4 0-1.4.6-2.9.4-4.2-.6m-40.8 4.6c-.2 0-.4.4-.4 1s.5 1 1.1 1 .8-.4.4-1-.8-1-1.1-1m226.7 8.7c-.7-.7-1.2-.6-1.7.5-.3.9-.5 2.6-.3 3.9s.8 2.2 1.3 2.1 1.1-1.4 1.3-2.9c.3-1.4 0-3-.6-3.6m-22.2 1.3c-.5 0-.9.6-.9 1.4s1.1 2.1 2.5 3c2.1 1.4 2.5 1.4 2.5.2 0-.8-.7-2.2-1.6-3-.8-.9-2-1.6-2.5-1.6m-225.4 12a.47.47 0 1 0 0 1 .47.47 0 1 0 0-1m92.1 1.3c-.3-.3-.6.3-.5 1.3 0 1.2.3 1.4.6.6.3-.7.2-1.6-.1-1.9m-292.1 1.1c-.5-.2-2.8 1.6-5 3.9s-4.8 5.3-5.9 6.6c-1.3 1.6-1.6 2.6-.9 3.3s2.9-1 6.9-5.1c3.2-3.4 5.9-6.7 5.9-7.3s-.5-1.3-1-1.4m196.4.6c-.6 0-.8.4-.4 1s.8 1 1.1 1c.2 0 .4-.4.4-1s-.5-1-1.1-1m254.5 2.3c-.6-.2-1.4 0-1.8.3-.4.4-.7 16.9-.7 36.8 0 22 .4 36.7 1 37.6.9 1.3 1.1 1.3 2 0 .6-.9.9-15.1.8-37.9-.1-24.6-.5-36.5-1.3-36.8m-257.3 1.4c-.8-.8-1.1-.3-1.1 1.8 0 2.6.2 2.7 1.1 1.1.8-1.3.8-2.1 0-2.9m10.6-.7c-.2 0-.6.3-1 .7s-.7 1.5-.7 2.5.5 1.8 1 1.8 1-1.1 1-2.5-.1-2.5-.3-2.5m115.9 2.3c-.3-.3-.6.3-.5 1.3 0 1.2.3 1.4.6.6.3-.7.2-1.6-.1-1.9m-231.4 1.3c-.6-.3-1.3-.1-1.7.5s-.4 1.4-.1 1.7 1.1.1 1.7-.5c.7-.7.7-1.3.1-1.7m-4.7 4.4a.47.47 0 1 0 0 1 .47.47 0 1 0 0-1m-97.8 5c-.7 0-5.4 4.4-10.4 9.7-5.1 5.3-9.2 10.2-9.2 11s.9 1.3 1.9 1.3 2.6-.3 3.5-.6c.9-.4 1.6-1.8 1.6-3.5 0-1.6.3-2.9.8-2.9.4 0 3.9-2.9 7.7-6.3 4.2-3.9 6.6-6.8 6.2-7.5-.6-.7-1.5-1.2-2.1-1.2m94.3 1c-.5 0-1 .4-1 .9s.5 1.2 1 1.6 1-.1 1-.9c0-.9-.5-1.6-1-1.6m88 11c-.5 0-1 .4-1 1s.5 1 1 1 1-.4 1-1-.5-1-1-1m-3.6 3c-.2 0-.4.4-.4 1s.5 1 1.1 1 .8-.4.4-1-.8-1-1.1-1m-199.5 10.5c-1.2-1.2-1.9-1-4.7 1.9-2.9 2.9-3.1 3.5-1.7 4.6 1.3 1.1 2 .8 4.7-1.9 2.7-2.8 2.9-3.4 1.7-4.6m446.6-1.2c-.5-.2-1.6.1-2.3.5-.7.5-1.2 1.9-1.1 3.2s-.3 3.4-.9 4.6c-.7 1.2-1.2 2.7-1.2 3.4s.9 2.2 2 3.4c1.7 1.8 2 3.7 2.2 14.8.2 9.2.6 12.8 1.5 13.2.7.3 1.3 1.7 1.3 3.3 0 1.5-.4 3.4-.8 4.1s-1.9 1.1-3.2 1c-2.3-.3-2.4 0-2.4 4.6 0 3.5.6 5.1 1.8 5.8 1.1.6 1.7 2.2 1.7 4.9 0 3.3.3 4 2 4 1.1 0 2.7-1.1 3.6-2.5 1.3-2 1.5-4.4 1.3-11.7l-.4-9.3 3-.5c2.8-.5 3-.9 3.6-5.6.3-2.8 1.4-6.2 2.3-7.6 1.2-1.8 1.6-4.2 1.4-8.4-.2-4.4-.7-5.8-1.8-5.8s-1.6 1.4-1.8 5c-.2 2.7-.8 5.3-1.4 5.7s-1.4 2.6-1.7 5c-.4 2.9-1.1 4.3-2.1 4.3s-1.6-1.2-1.8-3.9c-.2-2.8.2-4.4 1.7-6.1 1.8-2 1.9-2.4.6-4.1-.8-1.1-1.5-3.5-1.5-5.4s.5-5 1.2-6.8c1.1-3.1 1-3.6-.7-4.9-1.1-.8-2.7-2.9-3.5-4.6-.9-1.8-2.1-3.4-2.6-3.6m-419.5 3c-.8-.1-3.4 1.8-5.7 4.4-3 3.3-4.2 5.5-4.2 7.6 0 2.5.4 2.9 2.2 2.6 1.4-.2 2.4-1.1 2.6-2.5.2-1.2 1.9-3.6 3.8-5.3 2-1.8 3.4-3.8 3.2-4.8-.3-1-1.1-1.9-1.9-2m-34.6 8.7c-.6-.6-1.9 0-3.6 1.8-1.4 1.5-2.9 3.7-3.2 4.9s-2 3.4-3.6 5-3 3.4-3 4-1.6 2.8-3.5 4.8-3.5 4.5-3.5 5.5-.7 2.1-1.5 2.4-1.5 1.7-1.5 3-.7 3-1.5 3.7-1.5 2.8-1.5 4.7-1.2 6.1-2.6 9.4c-1.5 3.2-3 5.9-3.4 5.9s-1.1.9-1.4 2c-.4 1.3-1.5 2-3.1 2-1.9 0-6.8 4.3-20.9 18.4-10.7 10.7-18.4 19.2-18.4 20.2s.4 2.4.8 3.1c.7 1.1 1 1.1 1.7 0 .5-.7 1.7-2.8 2.7-4.6s2.9-4.4 4.3-5.8 3.6-2.5 5.2-2.5c1.5 0 3.3.4 4 .8 1 .7 1 1.1-.2 2.1-.9.7-1.5 2.2-1.5 3.3s.7 2.8 1.5 3.7c1.4 1.5 1.4 2 0 4.6-.8 1.6-1.5 3.4-1.5 4s-.7 1.7-1.5 2.4-1.5 2.9-1.5 5-.7 4.3-1.5 5-1.5 2.2-1.5 3.4 1.1 3.3 2.3 4.6c1.3 1.4 3.2 3 4.4 3.7 1.7 1 2.2.9 2.7-.3.3-.8.6-2.6.6-3.9 0-1.5.9-2.8 2.2-3.5 1.2-.6 3.3-2.1 4.5-3.2 1.6-1.4 2.2-3.2 2.2-5.8 0-3.1.4-3.8 2.1-4.1 1.2-.2 2.6-1.1 3.2-2 .7-1.2.7-2.6 0-4.5-.7-2.1-1.6-2.7-3.2-2.6-1.2.1-2.2-.2-2.2-.8 0-.5.4-1 .9-1s1.2-2 1.6-4.5c.5-3.6.3-4.9-1.1-6.5-1.5-1.6-1.6-3.1-1-9.7.4-4.3 1.1-8.6 1.7-9.5.5-1 1.7-1.8 2.6-1.8s3-1.1 4.5-2.5c1.5-1.3 2.8-2.9 2.8-3.4s.9-1.3 2-1.6 2-1.3 2-2.1c0-.9.7-1.4 1.7-1.2s1.9 1.2 2.1 2.3.5 2.5.7 3.2c.3.8 1.1 1 2.7.4 1.2-.5 2.5-1.9 2.8-3.2s1.3-2.5 2.1-2.7c.9-.2 1.8.6 2.2 1.9.5 2.1.7 2.1 2.9.6s2.5-1.4 5.6 1.5l3.3 3.1 4.5-4.8c2.5-2.6 4.5-5.4 4.5-6.1s.6-1.9 1.4-2.5c.8-.7 2.4-3 3.6-5.3s4.2-6.3 6.8-8.9 5.2-4.8 5.8-4.8 1.4-.6 1.7-1.2c.3-.7.5-.1.6 1.3.1 1.6-1 3.6-2.9 5.4-1.6 1.6-3 3.4-3 4.1s-1.1 2.5-2.4 4.1-2.7 4.6-3.1 6.7c-.6 3.2-.3 4.3 1.5 6.2 1.2 1.3 2.6 2.1 3.1 1.8s.9-2.5.9-4.8c0-2.5.6-4.8 1.4-5.5s1.7-2.5 2.1-4.1 2-4 3.6-5.4 2.9-3.3 2.9-4.4.9-2.7 2-3.7 2-2.8 2-4 .7-2.8 1.5-3.5 1.2-1.6.9-2.1-1.4-.9-2.4-.9c-1.1 0-2.2 1.1-2.9 3-.6 1.6-1.7 3-2.5 3s-1.8-.5-2.1-1-1.7-1-3.1-1-2.7.7-3 1.5-1.1 1.5-1.8 1.5-1.8-.6-2.4-1.4c-.9-1.1-2.1-.4-6.6 4.3-3 3.2-5.5 6.6-5.5 7.8 0 1.1-.7 2.6-1.5 3.3s-2.2 1-3 .6c-1.1-.4-1.4-1.3-.9-3.4.4-1.5 1.5-3.8 2.5-5.2 1-1.3 1.8-2.9 1.8-3.6s1.4-1.8 3-2.5 3-1.9 3-2.6c0-.8.7-1.4 1.5-1.4s2-1.2 2.5-2.7c.6-1.7.7-3 .1-3.6-.5-.5-1.4-.6-2-.3-.6.4-1.1 1.2-1.1 1.9s-1.1 2.3-2.4 3.5c-1.6 1.5-3.3 2.1-5.2 1.9l-2.9-.3-.3-9.9c-.2-8.2 0-10.2 1.4-11.8 1.1-.7 1.3-1.7.7-2.3m207.9 3.5c-.9-1.6-1-1.6-1.6 0-.4.9-.4 2.1 0 2.7.4.7 1 .7 1.6 0s.6-1.6 0-2.7m-3.6 5.3c-.3-.7-.5-.1-.5 1.2s.2 1.9.5 1.2a4.88 4.88 0 0 0 0-2.4M251.4 250c-.8 0-1.4.6-1.4 1.4s.5 1.8 1.1 2.1c.6.4 1.5.1 1.9-.6.5-.7.6-1.7.3-2.1-.2-.4-1.1-.8-1.9-.8m208.1 4c-.2 0-.9 1-1.6 2.1-.9 1.6-.8 2.8.1 4.7l1.2 2.6 1.4-2.8c1.1-2.1 1.2-3.3.4-4.7-.6-1-1.3-1.9-1.5-1.9m158.5 0c-.5 0-1 2-1 4.5 0 3.5-.5 4.7-2.1 5.6-1.7.9-2 1.9-1.8 5.3.2 2.3.8 4.2 1.3 4.2s1.1-1.2 1.3-2.7 1-3.2 1.8-3.9c1-.8 1.4-3.2 1.4-7.1.1-3.3-.3-5.9-.9-5.9m-369.6 2.3c-.6-.2-1.8.8-2.8 2.1-.9 1.4-1.6 3.2-1.6 4.1 0 1.3.6 1.1 3-.7 1.7-1.2 2.9-2.9 2.8-3.7-.2-.8-.8-1.6-1.4-1.8m144.8 4.5c-.5-.5-1.2-.6-1.6-.2s-.7 1.7-.7 3-1.1 3.4-2.4 4.7-3.5 2.7-4.8 3c-2.3.6-2.4 1.1-2.6 8.1-.1 7.4-.1 7.5 2.8 9 1.6.9 3 2.3 3 3.3s.5 2.3 1.2 3 2.5 1.2 4 1.2 2.8.5 2.8 1a1.08 1.08 0 0 0 1 1c.5 0 1-1.1 1-2.4s.3-3.1.6-4c.4-.9 1.8-1.6 3.5-1.6s3.2-.6 3.5-1.5c.3-.8.3-2.6 0-3.9l-.6-2.4-5 2.6c-2.7 1.4-5.6 2.3-6.5 2-1-.4-1.5-1.9-1.5-4s-.8-4.1-2-5.2c-1.1-1-2-2.8-2-4.1 0-1.8.6-2.3 3.2-2.6 3.1-.3 3.3-.6 3.6-4.7.3-2.4 0-4.8-.5-5.3m-28.1 2.9c-.7-.7-1.2-.6-1.7.5-.3.9-.5 2.6-.3 3.9s.8 2.2 1.3 2.1 1.1-1.4 1.3-2.9c.3-1.3 0-3-.6-3.6m282.3 3.5c-2.2-.1-4.6.2-5.3.7-1.1.7-.8 1.5 1.8 4.1 2.3 2.3 3.2 2.7 3.2 1.6 0-.9 1.2-2 2.6-2.6 1.4-.5 2.4-1.5 2.2-2.2-.4-.7-2.3-1.4-4.5-1.6m13.4 2.5c-.2-1.8-.6-2.8-1-2.1-.4.6-.6 3.5-.5 6.3.2 4.7-.1 5.4-2.5 7.2-1.5 1.1-2.8 2.6-2.8 3.4s.5 3.2 1.2 5.3l1.2 3.9 1.8-4c1-2.2 2.2-3.7 2.8-3.3.6.3 1 4.2 1 8.5s-.4 8.1-.9 8.5c-.5.3-.2 1.8.8 3.6.9 1.6 2.2 3 2.9 3s1.5-.5 1.8-1c.4-.7 1.1-.7 2.1.2 1.1.9 1.7.9 2.6 0s.3-2.1-2.5-5c-2-2.1-3.7-4.5-3.7-5.5 0-.9.9-2.2 2-2.7 1.5-.8 2-2.1 2-5.4 0-2.6-.6-4.8-1.5-5.5-.8-.7-1.8-3.2-2.1-5.7-.4-2.8-1.3-4.8-2.5-5.4-1.1-.6-2-2.4-2.2-4.3M453 268c-1.1 0-2 .6-2 1.3s.3 1.6.6 1.9 1.2.4 2 .1 1.4-1.2 1.4-1.9-.9-1.4-2-1.4m214.6 0a1.58 1.58 0 0 0-1.6 1.6c0 .9.5 1.4 1.2 1.2a2.55 2.55 0 0 0 1.6-1.6c.2-.7-.3-1.2-1.2-1.2m-425.4 2.2c-.6-1-1.2-.9-2.4.5-1 1.1-1.3 2.3-.8 3.2.5.8 1.6 1.1 2.4.8.9-.3 1.6-1.2 1.6-1.9s-.4-1.9-.8-2.6m130.4.5c-.8-.3-2 .1-2.7.9-.9 1.1-.9 1.8-.1 2.6.6.6 1.8.8 2.7.5s1.6-1.2 1.6-2c-.1-.8-.7-1.7-1.5-2m33.1-.7c-1.2 0-2.9.4-3.7 1-1.2.8-1.3 1.3-.2 2.7.7 1 1.8 3 2.4 4.6.6 1.5 1.6 2.6 2.2 2.4s1.5-1.5 2-2.9.6-3.7.2-5.2c-.4-1.8-1.3-2.6-2.9-2.6m349.8 1c-.8 0-1.8.6-2.1 1.4s0 2.4.6 3.5c.6 1.2 1.6 1.8 2.1 1.5s1-1.9 1-3.5c-.1-1.9-.6-2.9-1.6-2.9m-390.6 4c-1.7 0-1.9.9-1.9 8.5 0 5.2.4 8.5 1 8.5s1.2-.6 1.4-1.2c.2-.7.6-4.5.8-8.5.5-6.6.4-7.3-1.3-7.3m87.9.9c-.2-.5-1.5.1-3 1.3-2.4 2-2.7 2.7-2.1 6.5.3 2.3 1 4.2 1.5 4.2s.9-1.1.9-2.5.7-3.9 1.6-5.6c.7-1.6 1.3-3.3 1.1-3.9m53.5 3.6c-.5-.9-1.2-1.2-1.6-.9-.4.4-.7 1.7-.7 3s.4 2.5.9 2.8 1.2-.3 1.6-1.4c.3-1.1.2-2.7-.2-3.5m28-.8c-.6-.3-1.3-.3-1.6 0-.4.4-.6 5-.6 10.4 0 8.9-.2 9.8-2 10.2-1.6.4-2 1.4-2 5.1 0 2.5.5 4.8 1.1 5.2s1.5.1 2-.7.9-2.5.9-3.9.5-3 1.1-3.6 1.3-5.8 1.6-11.6c.3-6.6.1-10.7-.5-11.1m34.7-.7c-.6 0-1.3.7-1.6 1.5s-.3 1.9.1 2.5 1.1.8 1.6.5.9-1.4.9-2.5-.5-2-1-2m-313.5 1a.47.47 0 1 0 0 1 .47.47 0 1 0 0-1m362.5 0a1.08 1.08 0 0 0-1 1 1.08 1.08 0 0 0 1 1 1.08 1.08 0 0 0 1-1 1.08 1.08 0 0 0-1-1m-243.1 1c-.5 0-1.6 1.6-2.4 3.6-1.2 2.9-1.3 4.4-.4 7.8.6 2.3 1.3 4.5 1.6 4.9s1.1.3 1.9-.4c.9-.8 1.4-3.2 1.4-7 0-3.2-.3-6.5-.6-7.4-.3-.8-1-1.5-1.5-1.5m384.1 0c-.4 0-1.3.6-2 1.4-.9 1.1-.9 2-.1 3.5.6 1.1 1.5 2.1 2 2.1s1.2-.8 1.5-1.9c.3-1 .3-2.6 0-3.5s-1-1.6-1.4-1.6m-508.5 1c-1.4 0-2.9.8-3.5 1.9s-1 2.7-1 3.5c0 .9.7 1.9 1.5 2.2.9.3 2.3-.4 3.5-1.8 1.1-1.3 2-3.1 2-4.1 0-1.2-.8-1.7-2.5-1.7m163.5.5c-.6-.3-1.2 0-1.4.7s-.9 2.9-1.4 4.8c-.6 1.9-1.3 5.9-1.7 8.8-.6 4.4-1.1 5.5-3.1 6.2-1.3.5-2.4 1.7-2.4 2.8 0 1 1.1 2.9 2.4 4.1 1.3 1.3 2.6 3.3 2.8 4.4.2 1.3 1.2 2.2 2.6 2.4 1.2.2 2.2-.1 2.2-.6s-.6-1.2-1.3-1.5c-.9-.3-1.2-2.6-1.1-7.4.1-4.3.6-6.9 1.3-6.9.6 0 2.2.9 3.6 1.9 1.6 1.2 2.5 2.9 2.5 4.7 0 1.6.8 3.6 1.8 4.6s2.2 2.7 2.8 3.8c.6 1.4 1-.6 1.2-6.9.2-4.9.1-9.5-.2-10.2s-2-1.3-3.8-1.3-3.9-.5-4.5-1.2c-.7-.7-1.2-3.8-1.2-6.9-.1-3.1-.6-6-1.1-6.3m80.9.5c-.5 0-.9.3-1 .8l.1 9c.1 6-.3 8.8-1.4 10.5-.9 1.2-1.6 3.7-1.6 5.6 0 1.8-.4 4.1-.9 5.1s-.7 2.7-.4 3.9 1.1 2.2 1.8 2.2 1.5-.7 1.9-1.6c.3-.9 1-1.3 1.5-1s1.2 2.4 1.6 4.6c.5 3 .3 4.5-.9 5.8s-1.6 4.6-1.8 14.7c-.2 11.4-.5 13-2 13.3-1.3.2-1.8-.3-1.8-2 0-1.3-.4-3-.9-3.7-.5-.8-1.6-1.1-2.5-.8-1.1.4-1.6 1.9-1.6 5 0 3 .6 4.9 1.9 6.1 1 .9 1.9 2.8 1.9 4.1s1 4.5 2.2 7c1.3 2.8 3.2 5 4.7 5.6 1.3.5 3.5.9 4.8.9 1.7 0 2.6.8 3.4 3 .9 2.5 1.6 3 4.1 3 1.7 0 3.1-.4 3.1-.9s.3-1.6.6-2.5c.4-1.1-.2-1.9-2-2.5-1.4-.5-3.5-2.7-4.6-5-1.1-2.2-2-5.9-2-8.4 0-3-.5-4.6-1.5-5s-1.5-2-1.5-5.1c0-3.5-.5-4.7-2-5.6-1.1-.6-1.8-1.5-1.4-2 .3-.5 1.7-1 3-1s2.7.5 3 1 .9 3.5 1.2 6.5 1.2 6 1.9 6.6 1.4 1.7 1.4 2.5c0 .7 1 2 2.2 2.9s3.3 1.6 4.6 1.6c1.5 0 2.6.7 2.9 1.9.3 1.1 1.1 2.2 1.9 2.5s2.1-.4 2.9-1.6 1.8-1.8 2.2-1.4.1 2.3-.6 4.3-1.1 3.7-.9 3.9 1.3.6 2.5 1c1.6.5 2.5.1 3.3-1.4.6-1.2 2.1-2 3.5-2s2.9-.8 3.5-2.1c.6-1.1.9-2.7.6-3.4s-1.9-1.6-3.6-1.9c-2.2-.4-3.2-1.3-3.7-3.1-.3-1.4-1.3-3-2-3.7-.8-.6-1.4-2.2-1.4-3.5s-.9-2.8-2-3.4c-1.4-.7-2-2.1-2-4.3 0-1.8-.4-3.8-.8-4.5-.7-1-1.1-1-2.1.2-.7.9-1.7 1.5-2.2 1.5s-.9-.8-.9-1.9c0-1 .7-2.4 1.5-3.1 1.1-.9 1.5-3.2 1.5-8 0-4.7-.4-7.1-1.4-8-1.2-1-1.7-.8-2.7.7-.7 1.2-1.9 1.8-3.1 1.5-1.5-.4-1.8-1.4-1.8-5.1 0-2.5.7-5.8 1.5-7.1s1.4-3.5 1.5-4.8c0-1.4-.8-2.7-2.4-3.4-1.7-.8-2.6-2.2-3-4.7-.3-2-.6-4.8-.6-6.3 0-1.4-.9-3.8-2.1-5.2-1.2-1.5-3.1-2.6-4.5-2.6-1.7 0-2.6-.7-3-2.5-.4-1.6-1.1-2.7-1.6-2.7m24.8.3c-.4-.4-.7-.1-.7.7s.3 1 .7.7c.3-.4.3-1 0-1.4m28.6 4.6c-.4-.4-1.5-.4-2.3.1s-2.5 1-3.8 1-2.5.7-2.9 1.5c-.3.8-.1 2.1.5 2.9.6.7 1.2 4.4 1.4 8.1.2 5.3.7 7 2.2 8.2 1.1.8 2.6 1.3 3.5 1.1 1.2-.2 1.6-2.4 1.8-11.2.2-6 0-11.3-.4-11.7m10.1 1.4c-.6-.2-1.4.4-1.8 1.3-.3.9-.6 2.4-.6 3.4s-.7 2.4-1.5 3.1c-1.1.9-1.5 2.7-1.2 6.4.2 2.8.7 5.1 1.3 5.1s1.1-1.6 1.3-3.5 1.2-4.3 2.3-5.3c1.5-1.4 1.9-2.9 1.7-5.9-.3-2.4-.9-4.4-1.5-4.6M251.5 290a.47.47 0 1 0 0 1 .47.47 0 1 0 0-1m106.7 1.8c-.8-.8-1.3-.6-1.8.6-.4 1-.2 2.2.4 2.8.8.8 1.3.6 1.8-.6.4-1 .2-2.2-.4-2.8m80.5.2c-.5-1.3-.6-1.3-.8 0-.1.8-.3 2.6-.3 4-.1 1.7-1.4 3.3-4.4 5.3-3.7 2.5-4.1 3.1-3.2 4.9.8 1.4.8 2.4-.1 3.4-.6.8-1 2.6-.8 4.2s.9 2.8 1.7 2.8 1.9-.9 2.5-2 1.3-2.2 1.4-2.5c.2-.3 1 .4 1.8 1.4.8 1.1 1.4 4.2 1.4 7.1 0 3.8-.4 5.4-1.6 5.8-1 .4-2.3-.2-3.3-1.5-1.3-1.6-2.4-2-4.4-1.5s-2.7 1.3-2.7 3.1c0 1.5.9 2.9 2.2 3.7 1.2.7 3.4 1.1 4.9 1 1.4-.1 3.2.5 3.9 1.3 1 1.2 1 2.1.1 4.1s-1.7 2.4-3.5 2c-1.6-.4-2.9 0-4.1 1.3-1.2 1.4-1.5 2.8-1.1 4.9.4 1.6 1.3 3.5 2 4.1 1.1.9 1.7.7 2.7-.9.7-1.1 1.8-2.1 2.5-2.1.6 0 1.5 1.8 1.8 3.9.4 2.2 1.6 4.7 2.6 5.7 1.7 1.5 2.1 1.6 2.9.3.5-.8.9-3.5.9-6s.5-5 1.1-5.6c.8-.8.8-1.3 0-1.8-.7-.4-1.1-5-1.1-12.5 0-10.5.2-12 2-13.6 1.1-1 3.1-4.2 4.5-7.1s2.5-6.3 2.5-7.5c0-1.8-.3-2-1.2-1.1-.7.7-2 1.2-3 1.2s-1.8-.3-1.8-.7.7-1.5 1.6-2.4c1-1.1 1.3-2.5.9-3.8-.4-1.1-1.3-2.1-2.1-2.1s-2.5.7-3.8 1.5c-1.9 1.2-2.5 1.3-3.3.2-.3-.4-1-1.7-1.3-2.5m28.5-.2c-.6-.6-1.2-.4-1.6.6-.3.8-.2 1.8.3 2.1s1.2.1 1.6-.6c.4-.6.3-1.5-.3-2.1m296 .8c-.4-.3-1.5 0-2.5.5s-1.7 1.8-1.7 2.8.7 2.1 1.6 2.5c.9.3 2 .4 2.5 0 .5-.3.9-1.6.9-2.9s-.3-2.6-.8-2.9m-152.1.5c-.3.1-1.7 1.1-2.9 2.4-2 2-2.1 2.4-.8 3.5.8.7 1.5 2.1 1.5 3.2s-1.3 3.6-2.9 5.6-3.2 4.8-3.6 6.2c-.4 1.8 0 3.4 1.4 5.2 1.5 1.8 2.1 4.1 2.1 7.6 0 2.8.3 5.7.6 6.6s1.2 1.6 1.9 1.6 2.4.9 3.8 2c1.6 1.2 2.8 1.6 3.2 1 .3-.6 1.2-1 2-1 .7 0 1.6 1.1 1.9 2.4s2.4 4 4.7 6c2.8 2.5 4.7 3.5 5.9 3.1 1.3-.4 2.9.5 5.3 3 3.4 3.5 3.6 3.5 11.4 3.5 7.1 0 8.2-.3 10.2-2.4 1.7-1.9 2-2.6.9-3.2-.7-.4-2.7-.7-4.5-.5-1.7.1-4.9-.4-7-1.3s-5.4-2.8-7.2-4.2c-1.9-1.4-4-4.1-4.8-5.9s-2.3-3.8-3.5-4.5c-1.2-.6-2.9-.9-3.9-.6s-2.5-.3-3.2-1.2c-.8-.9-3.5-6-6.1-11.2-4.1-8.3-4.7-10.4-4.7-16 0-3.5-.3-7.4-.6-8.7-.2-1.3-.7-2.3-1.1-2.2M478 295.5c-.6-1.6-.9-1.7-1.3-.5-.3.8-.7 4.3-1 7.8-.4 4.7-.1 6.6 1 7.8.8.8 2 1.5 2.6 1.5.7 0 .9 3.5.4 11.2-.3 6.2-.2 11.9.2 12.6.6 1 1.3 1.1 2.9.3 1.1-.6 2.5-2.5 3.2-4.3 1-2.8.9-3.5-.6-4.5-.9-.7-2.3-1.3-3-1.3-1 0-1.3-2.2-1.3-8.8 0-6.1-.5-9.8-1.6-12-.9-1.8-1.4-4.2-1.1-5.4s.1-3.3-.4-4.4m-74.6-.2c-.6-.2-1.4 0-1.8.3-.4.4-.7 1.5-.7 2.6 0 1.3.6 1.8 1.8 1.6 1-.2 1.8-1.2 1.8-2.2 0-1.1-.5-2.1-1.1-2.3m168.5-.3c-.5 0-1.2.7-1.6 1.6-.3.9.1 2.3.9 3.1 1.4 1.4 1.6 1.3 2.2-.6.4-1.2.4-2.6 0-3.1-.2-.5-1-1-1.5-1m46.1.5c-.6-.4-1 .5-1 1.9s.5 2.6 1 2.6 1-.9 1-1.9c0-1.1-.5-2.3-1-2.6m-115.5.5c-.9 0-1.8.6-2.1 1.3s-.3 6.2-.1 12.2l.5 11.4c.1.2.6 0 1.1-.6.6-.6 1.3-6.3 1.6-12.7.5-10.1.4-11.6-1-11.6m77.1 0c-.2 0-.7.5-1.1 1s-.1 1 .4 1c.6 0 1.1-.5 1.1-1s-.2-1-.4-1m14 0c-.7 0-1.6.3-1.9.6s-.2 1.5.4 2.6c1 1.9 1.1 1.9 2.4.1.7-1 1.1-2.2.9-2.6-.3-.4-1.1-.7-1.8-.7m-211.8 1c-.4 0-.8 1.1-.8 2.4s-.6 2.6-1.4 2.9-2.3.3-3.4 0-2.3 0-2.8.7c-.5.8 0 1.9 1.2 2.9 1.1.9 2.5 2.5 3.1 3.6.7 1.3.7 2.6.1 3.7-.5 1-.7 2.2-.4 2.7s1.6 1 2.8 1c1.3 0 3.9 1.8 6.5 4.6 4.2 4.5 4.3 4.7 3.7 9.8-.6 4.5-.4 5.5 1.4 7.1 1.1 1 2 2.6 2 3.5s1 2.6 2.3 3.8 3.1 2.2 4 2.2 1.7-.5 1.7-1.1-.9-2.2-2-3.6-2-2.9-2-3.4 1.3-.9 2.8-.9 3.7-.6 4.7-1.4c1.8-1.3 1.8-1.4-.2-2.5-1.2-.6-3.2-1.1-4.6-1.1s-2.7-.4-3-.9-.8-4.4-1.1-8.6c-.3-4.6-.1-9.2.6-11.2.9-2.8.8-3.8-.7-6.1-1-1.5-3-3.9-4.5-5.4-2.1-2.1-3-2.4-3.7-1.5-.5.7-1.2 2-1.4 3s-.8 1.9-1.4 2c-.5.1-1.4-1.7-1.9-4.1-.4-2.2-1.1-4.1-1.6-4.1m105.2 1c-.4 0-1 .6-1.3 1.4s.1 2 .9 2.7c1.1.9 1.8.9 2.6.1s.8-1.5-.2-2.7c-.7-.8-1.6-1.5-2-1.5m226.4 2c-.9 0-1.4 1-1.4 2.5s.6 2.5 1.4 2.5 1.7-.7 2-1.6.4-2 0-2.5c-.3-.5-1.2-.9-2-.9m-481.5 2c-.9 0-2.1.6-2.8 1.4-.9 1.1-.6 1.8 1.5 3.5 1.5 1.2 3.2 2.1 3.8 2.1s1.7-.5 2.4-1.2 1.2-2 1.2-2.9-1-2-2.2-2.3c-1.3-.3-3-.6-3.9-.6m291.3 1c-.5 0-1.1.3-1.4.6s-.4 1.2-.1 2 .9 1.1 1.4.8.9-1.2.9-2-.4-1.4-.8-1.4m39 .8c-.5-.5-1.1-.6-1.3-.1s-.4 7.6-.4 15.8c0 12.6.3 15 1.5 15 .9 0 1.9-1.5 2.4-3.8.6-2.6.6-4.4-.1-5.5-.6-.9-1.1-5.9-1.1-11.1-.1-5.2-.5-9.8-1-10.3m27.8-.8c-.5 0-1.2.5-1.5 1-.3.6-.3 3.5.1 6.5s1 5.5 1.5 5.5 1.1-2.5 1.5-5.5.4-5.9.1-6.5c-.5-.5-1.2-1-1.7-1m10.4 1.3c-.6-.2-1.4.4-1.8 1.3-.3.9-.4 2-.1 2.5s1.2.9 2.1.9c1 0 1.4-.8 1.2-2.2-.2-1.2-.8-2.3-1.4-2.5m165.1 2.1c-.5-.1-1.6 0-2.2.3-.8.3-1.2 2.8-1.2 7.4 0 5.4-.5 7.9-2.5 11.6-1.4 2.6-3.2 5.5-4 6.4s-1.5 2.6-1.5 3.8.2 2.2.5 2.2 2.5-2 5-4.5 4.5-5.3 4.5-6.4c0-1 .7-2.5 1.5-3.2 1.2-1 1.5-3 1.2-9.3-.2-4.4-.8-8.2-1.3-8.3m-272 1.6c-.9 0-1.5 1-1.5 2.4 0 1.3.6 2.9 1.4 3.6 1.1.9 1.6.8 2.4-.7.6-1.2.6-2.5 0-3.6-.5-.9-1.6-1.7-2.3-1.7m223.2 6c-.1 0-1.2 1.1-2.5 2.4-1.2 1.3-2.2 3.3-2.2 4.5 0 1.4.6 2.1 2 2.1 1.1 0 2.7-1.1 3.6-2.4 1.2-1.9 1.3-2.9.5-4.5-.7-1.2-1.3-2.1-1.4-2.1m-249.5 3.7c-.4-.2-1.5-.2-2.5 0-1.3.3-1.8 1.4-1.8 4.8 0 4.1.2 4.4 2.5 4.4s2.5-.4 2.5-4.4c.1-2.4-.2-4.6-.7-4.8m52.4-.7c-.2 0-.7.5-1.1 1s-.1 1 .4 1c.6 0 1.1-.5 1.1-1s-.2-1-.4-1m13.9 1a.47.47 0 1 0 0 1 .47.47 0 1 0 0-1m171.9 0c-.9 0-1.3.5-.9 1 .3.6 1 .8 1.6.4.5-.3.9-.8.9-1s-.7-.4-1.6-.4m-154.3 1c-.5 0-1.1 2.4-1.2 5.2-.2 3.9-.7 5.3-1.9 5.5-1 .2-1.8-.5-2.2-1.7-.3-1.1-1-2-1.6-2s-1.5.9-2.1 2c-.9 1.6-.7 2.2 1 3.2 1.1.7 2 2 2 2.8 0 .9 1.1 2.6 2.5 3.8 1.9 1.6 2.5 3.2 2.5 6.2 0 3.6-.2 4-2.5 4-2.1 0-2.5-.5-2.5-2.9 0-1.6-.4-3.2-.9-3.5s-1.2-.2-1.4.2c-.3.4.3 3.5 1.2 6.8s2 6.5 2.5 7.2 1.2 1 1.7.7 1.1-2.2 1.5-4.3c.4-2.2 1.6-4.4 3-5.5 2-1.5 2.5-1.5 3.6-.2.7.8 1.8 1.5 2.6 1.5s1.4-.9 1.4-2-.9-3.7-2-5.7c-1.1-2.1-2-5.6-2-8 0-3.2-.5-4.5-2-5.3-1.4-.8-2-2.1-2-4.5-.3-1.9-.7-3.5-1.2-3.5M421 321.5c-.6-.4-1 .7-1 2.5s.4 2.9 1 2.5c.5-.3 1-1.5 1-2.5s-.5-2.2-1-2.5m155.5.7c-.6-.5-2.1-.3-3.7.7-1.9 1.1-2.7 2.4-2.8 4.2 0 1.4.7 3.2 1.5 3.9 1 .8 1.5 3.1 1.5 6.9s-.6 6.3-1.8 7.7c-.9 1.1-2.5 2.3-3.5 2.7s-1.8 1.5-1.8 2.6c0 1 .9 3 2 4.4s1.7 3.3 1.4 4.1c-.3.9-.8 1.6-.9 1.6s-1.5-.4-2.9-1c-2-.8-2.6-1.7-2.6-4.1 0-2-.4-3-1.2-2.7-.7.2-1.4 1.3-1.6 2.3-.2 1.1-.7 2.3-1.2 2.8-.5.6-1.5-.6-2.4-2.8-.9-2-2-3.5-2.4-3.2-.5.3-1.2 2.4-1.6 4.6-.6 3.8-.4 4.3 2.8 7.4 1.9 1.8 3.8 4.4 4.2 5.6.4 1.3 1.5 2.9 2.3 3.6 1.4 1.1 1.4 1.4.1 2.2-.8.6-2.8 1-4.3 1s-3.8-.5-4.9-1.1c-1.9-1-2.6-.6-5.9 3-2.1 2.3-3.8 4.8-3.8 5.6 0 1.2 1.3 1.5 5.9 1.5 4 0 6.3-.5 7.1-1.5.7-.8 2.2-1.5 3.3-1.5s2.9.7 3.9 1.6 4.1 2 7 2.5c2.8.4 5.9 1.5 6.8 2.2.9.8 2.6 1.7 3.9 2.1s3.3 1.7 4.6 2.9 2.5 3.1 2.7 4.2c.2 1.2 1.2 2 2.4 2 1.6 0 1.9-.6 1.7-2.7-.2-1.7.3-3 1.4-3.6 1.2-.7 1.5-1.7 1.1-3.5-.4-1.4-1.6-2.9-2.9-3.3-1.2-.4-3.2-1.7-4.4-2.8-1.2-1.2-2.4-4.1-2.8-6.6s-1.7-6.4-2.9-8.8c-1.5-3-2.8-4.2-4.3-4.2-1.4 0-2.3-.8-2.7-2.2s.1-2.9 1.1-4.1c1.5-1.6 1.7-4.2 1.7-18.7-.1-9.7-.5-17-1.1-17.5m84-.2a.47.47 0 1 0 0 1 .47.47 0 1 0 0-1m-274.4 2.6c-.5-.3-1.2-.2-1.5.4-.3.5-.2 1.2.4 1.5.5.3 1.2.2 1.5-.4.3-.5.1-1.2-.4-1.5m16.9-.6c-.5 0-1.2.5-1.5 1-.3.6.1 1.3 1 1.6s1.9.4 2.2.1.3-1-.1-1.6-1.1-1.1-1.6-1.1m129.9 0c-.5 0-.9.7-.9 1.5s.9 1.5 1.9 1.5 2.2-.4 2.5-.9-.2-1.2-1-1.5c-.9-.3-2-.6-2.5-.6m130.6 0c-.8 0-1.5.6-1.5 1.4s.3 2.1.6 3 1 1.3 1.5 1 .9-1.7.9-3c0-1.5-.6-2.4-1.5-2.4m32 0a1.54 1.54 0 0 0-1.5 1.5 1.54 1.54 0 0 0 1.5 1.5 1.54 1.54 0 0 0 1.5-1.5 1.54 1.54 0 0 0-1.5-1.5m-102 1a.47.47 0 1 0 0 1 .47.47 0 1 0 0-1m-66.9 3c-.2 0-.7.5-1.1 1s-.1 1 .4 1c.6 0 1.1-.5 1.1-1s-.2-1-.4-1m179 0c-.8 0-1.7.4-2 .9s-.3 1.6 0 2.5 1.2 1.6 2 1.6 1.4-1 1.4-2.5-.6-2.5-1.4-2.5m-320.1 3c-.8 0-1.8 1.2-2.2 2.6-.4 1.6-.1 3.1.7 3.9 1.1 1.1 1.7 1.1 3.2 0 1.4-1.1 1.6-1.8.8-3.9-.5-1.4-1.6-2.6-2.5-2.6m272.3 1.5c-1.2-.5-1.8-.3-1.8.8 0 .8 1.2 2.5 2.6 3.6s3.2 2.1 3.8 2.1 2-.6 3.1-1.4 1.6-1.7 1.3-2.1c-.4-.4-2.2-1-4-1.5-1.8-.4-4.1-1.1-5-1.5M379.1 335c-.5 0-1.2.4-1.5.9s-.2 1.2.3 1.5 1.2.3 1.5-.1c.4-.4.6-1 .6-1.5 0-.4-.4-.8-.9-.8m32.6 3.2c-.7-.6-1.9-.7-2.6-.2s-1 1.3-.7 1.9a2.75 2.75 0 0 0 2.1 1.1c.8 0 1.6-.4 1.9-.9s0-1.3-.7-1.9m9.9-.5c-.8-.3-1.9 0-2.5.6-.8.8-.8 1.5 0 2.4.6.7 1.7 1 2.5.7s1.4-1.1 1.4-1.8-.6-1.6-1.4-1.9M181.8 339c-.3 0-.8.3-1.1.7-.4.4-.7 2.1-.7 3.8 0 1.9-.8 3.9-2 5-1.1 1-2 2.8-2 3.9 0 1.2-2.3 4.4-5.5 7.5-3 2.9-5.5 6.2-5.5 7.2s-.6 2.2-1.4 2.6-1.6 1.9-1.8 3.3c-.3 2.3-.8 2.5-6.8 2.8-3.6.2-7.2.9-8 1.6s-2.5 1.6-3.7 2-2.7 1.3-3.4 2.1-2.3 1.5-3.5 1.5c-1.3 0-2.6.5-2.9 1s-1.8 1-3.2 1-3.8.7-5.4 1.7c-1.5.9-3 2.7-3.3 4-.4 2.2-.4 2.3 3 .8 1.9-.8 4.5-1.5 5.7-1.5s2.8-.7 3.5-1.5 2.3-1.5 3.6-1.5 2.7-.6 3.1-1.3 2.5-1.6 4.7-2c2.1-.3 4.7-1.3 5.7-2.2 1.7-1.5 2-1.5 4.9.6 1.7 1.3 3.1 2.6 3.1 3.1 0 .4-.9 1.5-1.9 2.4l-5 4.4c-2.8 2.5-3.1 3.4-3.1 8.8v5.9l5 .7c2.8.4 5 1.2 5 1.8s-1.7 2.6-3.7 4.3c-3.7 3.2-3.7 3.2-2 5.8.9 1.4 1.7 3.5 1.7 4.6s-.4 2.3-1 2.6-1 1-1 1.5 1.2 1.1 2.6 1.5 3.5.4 4.6 0c1.7-.5 1.9-1.2 1.3-4.7s-.4-4.3 1.6-5.8 2.3-2.6 2.3-7.2c0-3-.4-6-.8-6.6-.5-.9-1.3-.7-2.7.6-1.9 1.7-2 1.7-3.4-.1-1.2-1.6-1.1-2.3.2-4.9 1.4-2.6 1.7-2.8 2.5-1.4.5.9 1.6 1.7 2.5 1.7 1.2 0 1.4-.7 1-3-.5-2.3-.2-3.2 1.3-4 1-.5 2.3-2.4 2.9-4 .7-2.1 1.7-3 3.2-3s2.5-1.1 3.5-3.4c.8-1.9 1.9-3.7 2.4-4.1s1-1.7 1-2.9c0-1.3.7-2.9 1.5-3.6s1.5-2.3 1.5-3.5-.7-3.6-1.5-5.1c-.8-1.6-1.5-4-1.5-5.5 0-1.4.7-3.2 1.5-3.9s1.5-2.3 1.5-3.5.7-2.8 1.5-3.5 1.5-2.2 1.5-3.4-.6-2.9-1.4-3.9-1.4-1.8-1.7-1.8m570.2 0c-.5 0-1.2 1-1.5 2.2s-.4 9.7-.3 18.8c.2 13.9.5 16.5 1.8 16.5s1.5-2.6 1.8-16.5c.2-9.1 0-17.5-.3-18.8s-1-2.2-1.5-2.2m-303.8 5c-.6 0-1.2.9-1.2 1.9 0 1.1 1.2 2.5 3 3.4 2.8 1.4 3 1.4 3-.3 0-1-.8-2.5-1.8-3.4s-2.4-1.6-3-1.6m21.8 0c-.4 0-1.6.9-2.5 2-1 1.1-1.8 3.4-1.7 5.1 0 1.7.3 3.3.6 3.6s.8-.8 1.2-2.4 1.5-3.4 2.5-4.1 1.5-1.9 1.2-2.8c-.3-.7-.8-1.4-1.3-1.4m-241 1.2c-1.4-.2-2.9 0-3.2.4-.4.4-.7 1.7-.7 3s-.5 2.6-1 2.9-1.7 2.1-2.5 3.8c-.8 1.8-2.2 4.3-2.9 5.7s-2.5 2.7-3.7 3c-1.7.4-2.4 1.4-2.6 4-.2 2.1-1.7 5.1-3.8 7.6-1.9 2.3-3.4 4.7-3.4 5.4s-.9 2.2-1.9 3.3-2.8 3.9-4 6c-1.2 2.2-2.1 5.1-2.1 6.4s-.7 3.3-1.7 4.3c-1.5 1.7-1.5 2 0 3.7.9 1 1.7 2.1 1.7 2.5s-1.3.7-2.8.7c-1.9 0-3.5.9-5 2.9-1.9 2.5-2 3.1-.7 4.1.8.7 1.5 1.7 1.5 2.3s-1.3 2.5-2.9 4.1c-1.6 1.7-3.1 3.9-3.2 5-.3 1.6.2 2 2.5 2 2.1 0 3.1.6 3.7 2.2.5 1.2 1.3 2.2 1.8 2.2s1.2-.7 1.5-1.6.6-2.6.6-3.9.4-2.6.9-2.9 2.1-3 3.5-6 2.6-5.8 2.6-6.4.7-1.2 1.5-1.5 1.5-1.3 1.5-2.2 1.5-3.5 3.3-5.8 3.8-5.4 4.5-7c.7-1.5 1.2-3.6 1.2-4.7s.7-3.1 1.4-4.7c.8-1.6 1.7-3.5 2-4.3s.9-2.2 1.4-3 1.6-2.9 2.5-4.7c.9-1.7 1.6-4.9 1.6-7.1 0-2.3.6-4.5 1.5-5.2.8-.7 1.5-2 1.5-2.9s1.6-3.3 3.6-5.3c2.4-2.5 3.5-4.4 3.2-6-.3-1.3-1.2-2.1-2.9-2.3m388.5.3c-.5-.1-2.6.1-4.5.4l-3.5.6 3.8 3.8c2.1 2.1 4.2 3.8 4.7 3.8s.8-1.9.7-4.2c-.1-2.4-.7-4.3-1.2-4.4m-52 .5a.47.47 0 1 0 0 1 .47.47 0 1 0 0-1M386 349.5c-.6-.3-1.3.1-1.6.9-.3.9-.3 2.3 0 3.1.3.9 1.1 1.3 1.6.9.6-.3 1-1.5 1-2.5s-.5-2.1-1-2.4m89.5 4.8c-2.3-2.4-2.5-2.5-3.2-.8-.4 1-.2 2.6.3 3.4s2 1.8 3.2 1.9c1.2.2 2.1-.2 2.1-.8s-1-2.3-2.4-3.7M312 356c-1.5 0-2 .7-2 2.4 0 1.3.4 2.7 1 3 .5.3 1.4-.3 2-1.4s1-2.4 1-3-.9-1-2-1m205 0c-1.1 0-2 .4-2 .9s.7 1.2 1.5 1.5 1.5 1.7 1.5 3c0 1.4.4 2.7 1 3.1.5.3 1.5-.4 2.1-1.5.9-1.6.8-2.6-.5-4.5-.9-1.4-2.5-2.5-3.6-2.5m-96.5 1a.47.47 0 1 0 0 1 .47.47 0 1 0 0-1m75.2 2.3c-1.3-1.3-1.6-1.3-2.2.6-.4 1.2-.2 2.8.3 3.8.8 1.5 1.1 1.4 2.2-.6 1-1.9.9-2.6-.3-3.8m-101.4-.3c-5.2 0-6.5.3-7.3 1.9-.6 1.1-1.1 3.2-1.1 4.8-.1 2.5-.2 2.4-1.3-1.1-.7-2.2-1.7-4.1-2.3-4.3s-1.4 1-1.7 2.6c-.4 1.8-1.4 3.2-2.6 3.6-1.7.5-1.9 1-1 2.6.6 1.1.8 2.9.4 3.9-.3 1.1-1.5 2.4-2.6 3s-1.9 1.5-1.9 2 1.8 2.8 4 5c2.9 2.9 4 4.8 4 7 0 1.6.5 3 1 3s1-1.1 1-2.4.4-3.6 1-5c.8-2.2 1.3-2.4 2.9-1.6 1.1.6 2.2 2.1 2.6 3.3s1.4 3.1 2.3 4c1.3 1.5 1.4 2.3.4 5.1-.7 1.8-1.2 4.2-1.2 5.4s.5 2.4 1 2.7 2.4-.1 4.1-.9c2.7-1.4 3.3-1.4 5.2-.1 1.8 1.3 2.3 1.3 3.8-.1 1-.9 3.6-1.8 5.8-2.1 3.4-.5 4.2-1 4.7-3.2.4-1.4 1.3-3.2 2-3.9.9-.9 1.3-4.2 1.3-10.8 0-7.3.3-9.4 1.4-9.4.8 0 1.9.7 2.6 1.5s2 1.5 3 1.5 4 2.4 6.9 5.4c3.7 3.9 5.1 6.2 5.1 8.3 0 1.6.5 3.4 1.2 4 .7.7 1.4 4.4 1.8 8.3l.6 7.1 3.9 1.3c2.2.7 4.3 1.1 4.8.8s1.5-2.1 2.3-3.9c.8-1.9 2.1-3.4 2.9-3.4s1.8-.5 2.1-1c.4-.6-1-3-2.9-5.4-2-2.4-3.6-5.5-3.6-6.8 0-1.4-.6-2.9-1.2-3.5-.7-.6-2.1-1.2-3.2-1.4s-2.1-.9-2.3-1.6.8-1.5 2.2-1.9 2.6-1 2.6-1.5-1.8-1.2-4.1-1.5c-2.2-.4-4.3-1.2-4.6-1.9s-1.6-1.5-2.9-1.9c-1.3-.3-4.5-2-7-3.7-4.1-2.7-4.6-3.5-4.2-6.1.3-1.9-.1-3.1-.9-3.5-.7-.3-2 0-2.9.7-1.2 1-1.8.9-3.3-.4-1-.9-2.6-1.6-3.7-1.6s-2.7-.7-3.7-1.7c-1-.9-2.1-1.4-2.5-1s-.9 2.6-1.2 4.9-1 4.1-1.5 4-1.4-1.7-1.8-3.5c-.5-1.8-1.6-3.9-2.5-4.6-.9-.4-4.4-1-7.9-1m50.9 0c-.4 0-1.5.8-2.4 1.9-.9 1-2.2 2.1-3 2.4-.9.4-.3 1.4 2.1 3.6 1.9 1.7 4.3 3.1 5.2 3.1s2-.4 2.3-.9.1-1.8-.4-2.8c-.6-1-1.5-3-2-4.5-.5-1.6-1.3-2.8-1.8-2.8m225.3.4c-.5-.2-1.7.1-2.5.7-1.3.9-1.3 1.1 0 2 .8.5 2 .8 2.5.7.5-.2 1-.9 1-1.6s-.5-1.7-1-1.8m-63.3 2.7c-.9.1-2.6.3-3.7.6s-2.4.9-2.9 1.3c-.5.5.3 2 1.7 3.4s3.4 2.6 4.5 2.6c1.3 0 2.1-.9 2.5-3.1.3-1.7.4-3.5.1-4s-1.3-.8-2.2-.8m-298 4.4c-.8-1.4-1-1.4-2.1-.1-.7.8-1.1 2.5-.9 3.8s1 2.3 1.8 2.3 1.6-1 1.8-2.2-.1-3-.6-3.8m9.9.1c-.5-.3-1.2-.2-1.5.4-.3.5-.2 1.2.4 1.5.5.3 1.2.2 1.5-.4.3-.5.1-1.2-.4-1.5m6.5-.3c-.3-.3-.6 3.2-.5 7.8 0 4.9.4 7.6.8 6.5s.7-4.6.5-7.8-.5-6.2-.8-6.5m321.2 1.7c-.4 0-1.2.8-1.8 1.9-.5 1-.7 2.2-.4 2.5s1.3.6 2.2.6 2.3-.5 3.1-1c1.3-.9 1.2-1.2-.4-2.5-1-.8-2.2-1.5-2.7-1.5m-475.5 1.9c-.7-.7-1.7-.4-3.1.8-1.2 1-2.4 2.9-2.7 4.3s-.1 3.1.3 3.9c.5.8 1.4 1.1 2 .7s1.1-1.6 1.1-2.8.8-2.9 1.7-4c1.2-1.3 1.4-2.2.7-2.9M463 369c-.5 0-1 .7-1 1.5s.5 1.5 1 1.5 1-.7 1-1.5-.5-1.5-1-1.5m154.7 0c-.4 0-1 .6-1.3 1.4s-.4 2.2-.2 3.1 1 2.1 1.8 2.5 2.3 1 3.2 1.3c1 .3 1.8 1.5 1.8 3 0 1.3.7 3 1.5 3.6.9.8 1.3 2.2.9 3.9-.4 1.9.1 3.2 1.6 4.6 1.4 1.3 4.4 2.1 9.3 2.6 4 .4 8.2 1 9.4 1.4 1.8.6 2.3.3 2.9-1.9.4-1.5.5-2.7.3-2.9-.2-.1-1.8-1.2-3.6-2.5-1.8-1.2-4.6-2.2-6.3-2.2-2.6 0-4.5-1.4-11.8-9-4.8-4.9-9.1-8.9-9.5-8.9m-260.1 1c-.2 0-.7.5-1.1 1s-.1 1 .4 1 1.1-.5 1.1-1-.2-1-.4-1m31.4 0c-.5 0-1 .7-1 1.5s.5 1.5 1 1.5 1-.7 1-1.5-.5-1.5-1-1.5m221.5 1a.47.47 0 1 0 0 1 .47.47 0 1 0 0-1m-205.3 2c-1.5 0-3.4.5-4.2 1-1.3.9-1.3 1.1 0 2 .8.5 2.4 1 3.5 1s2.6-.4 3.4-.9 1.1-1.4.7-2-1.9-1.1-3.4-1.1m-44.2 1a1.08 1.08 0 0 0-1 1 1.08 1.08 0 0 0 1 1 1.08 1.08 0 0 0 1-1 1.08 1.08 0 0 0-1-1m-3.8 3c-1 0-2.1.3-2.5.6-.4.4-.4 1-.1 1.5s1.4.9 2.5.9 1.9-.7 1.9-1.5-.8-1.5-1.8-1.5m176.4 0c-.2 0-.7.5-1.1 1s-.1 1 .4 1c.6 0 1.1-.5 1.1-1s-.2-1-.4-1m74.5.6c-.5-.3-1.2-.2-1.5.4-.3.5-.2 1.2.4 1.5.5.3 1.2.2 1.5-.4.3-.5.1-1.2-.4-1.5m-296.2.4c-.5 0-.9.9-.9 2s.2 2 .4 2 .6-.9.9-2 .1-2-.4-2m49.2 2c-.4 0-1 .3-1.4.6-.4.4-.4 1-.1 1.5s1.6.9 3 .9c1.3 0 2.4-.4 2.4-.9s-.7-1.2-1.6-1.5-1.9-.6-2.3-.6m249.9.5c-.5-.3-1 .1-1 .9s.5 1.6 1 1.6 1-.4 1-.9-.5-1.3-1-1.6m-450.4.5c-.2 0-.7.5-1.1 1s-.1 1 .4 1 1.1-.5 1.1-1-.2-1-.4-1m428.9 0a.47.47 0 1 0 0 1 .47.47 0 1 0 0-1m-182.7 2.1c-.7 0-2.2.4-3.4.9s-2.3 1.8-2.6 2.9c-.3 1.3.3 2.8 1.7 4.1 1.2 1.1 2.8 2.1 3.4 2.1.7 0 2.3-.7 3.7-1.6s2.5-2.2 2.5-3-.9-2.3-2-3.4-2.7-2.1-3.3-2m348.8-.1c-.8 0-1.7.7-2 1.6s-.6 2.2-.6 2.9.5 2.6 1.1 4.1c.8 2.2 1.2 2.5 2 1.3.5-.8.9-3.4.9-5.7 0-2.9-.4-4.2-1.4-4.2m-91.3 4.2c-.7-.2-1.5.3-1.8 1.1s-.4 2.3-.2 3.3 1 1.8 1.8 1.8c1 0 1.5-1 1.5-2.9-.1-1.5-.7-3-1.3-3.3m7.1.1c-.6-.2-1.4 0-1.8.3-.4.4-.7 1.3-.7 2.1s.8 1.3 1.8 1.1 1.8-1 1.8-1.7c0-.8-.5-1.6-1.1-1.8m-70.6 3.7c-.4 0-1.4.7-2.2 1.5s-2 1.5-2.7 1.5-.9.7-.6 1.8c.3 1 1.2 3.4 1.9 5.5 1.1 3.1 1.8 3.8 4 3.8 1.5 0 3-.5 3.3-1 .3-.6-.5-2.4-1.9-4.1s-2.6-3.4-2.6-3.7c0-.4 1-1.3 2.1-2 1.7-1.1 1.9-1.5.8-2.2-.8-.7-1.7-1.1-2.1-1.1m6.8 2.1s-.6.3-1.3.6-1.2 1.1-1.2 1.9.9 1.6 1.9 2c1 .3 2.2 1.3 2.5 2.1.3.9 1.9 1.5 4 1.5 1.9 0 4.5.9 5.8 1.9 1.5 1.2 2.9 1.6 3.8 1.1 1-.6.6-1.5-1.8-4-2.5-2.5-3.5-2.9-5-2.1s-2.6.4-5.2-1.9c-2-1.9-3.5-3.2-3.5-3.1m151.5 1.4c-.5-.3-1.2-.1-1.6.4-.3.6-.4 1.5 0 2s1 1 1.6 1 .9-.6.9-1.4-.4-1.6-.9-2m-104.5.5c-1.4 0-2.7.4-3 .9s0 1.6.7 2.4c1.1 1.4 1.4 1.3 3-.9 1.8-2.4 1.8-2.4-.7-2.4m-533.4 3c-.4 0-1.3.4-2 .9-1.1.7-1 1 .3 1.5.9.4 2.1.4 2.6.1s.7-1 .3-1.5c-.3-.6-.8-1-1.2-1m231.4 1.1c-4.1.1-4.7.2-2.9 1 1.2.5 2.5 1.6 2.8 2.3.3.8 1.6 1.7 2.9 2s3.8 1.9 5.6 3.6c3.2 2.9 3.3 3 5.2 1.1s1.9-2 0-4.5c-1-1.4-2.8-2.6-4-2.6s-2.7-.7-3.4-1.5c-.6-1-2.8-1.5-6.2-1.4m129.1 1.5c-1.1-1.6-1.6-1.3-5.7 2.3-4.3 3.8-4.4 4.1-2.5 5.4 1.2.9 1.7 2.1 1.3 3.1-.3.9-1.7 1.7-2.9 1.8-1.3.1-.5.4 1.7.8 2.8.4 4.3 1.3 5 2.9.5 1.2 1.5 2.2 2.2 2.2s1.7-1.8 2.4-3.9c.7-2.3.9-5.8.5-8.4-.5-2.5-1.3-5.3-2-6.2m157.3-.5c-.3 0-1.3.6-2.3 1.4-1.7 1.3-1.7 1.5-.1 4 .9 1.4 2 2.6 2.5 2.6s1.5-1.2 2.5-2.6c1.6-2.4 1.6-2.7-.1-4-1.2-.8-2.2-1.4-2.5-1.4m-313.6.9c-.2 0-.4.7-.4 1.6s.5 1.3 1 .9c.6-.3.8-1 .4-1.6-.3-.5-.7-.9-1-.9m436.8 0c-.4 0-1.3.4-2.1.9-1.1.7-1 1.1.7 2 1.4.7 2.3.8 2.7.1.3-.6.3-1.5 0-2s-.9-1-1.3-1m-70.2 1a1.08 1.08 0 0 0-1 1 1.08 1.08 0 0 0 1 1 1.08 1.08 0 0 0 1-1 1.08 1.08 0 0 0-1-1m-574.3 3c-.7 0-3 1.6-5 3.7-3.5 3.5-3.7 4-3.7 10.2 0 3.6.3 7.1.8 7.7.4.6 2.4 1.4 4.5 1.7 2.9.5 5.1 1.9 9.1 6.2 2.9 3.1 6 5.6 6.8 5.6s2.7 1.1 4.1 2.5c1.5 1.3 2.6 3.1 2.6 3.9s2.5 4 5.5 7.1 5.5 6 5.5 6.4-.6 1.4-1.4 2-1.2 2-.9 3.1 1.3 2 2.2 2 2.5-.9 3.5-2 2.6-2 3.7-2c1.4 0 1.8-.8 1.8-3 0-1.7-.7-4.1-1.6-5.5-1.3-2-1.4-2.8-.4-3.9.9-1.1 1.7-1.2 3.2-.4s2.2.8 2.8-.2c.5-.8.1-2-1.1-3.1-1.1-1-1.9-2.2-1.9-2.7s-1-1.8-2.2-3c-1.2-1.1-3.4-2-4.9-2-2.3 0-2.8-.5-3.1-2.8-.2-1.6-.9-2.8-1.8-2.8s-1.6 1.1-1.8 2.6c-.2 1.4.4 3.2 1.2 3.9.9.7 1.6 2.9 1.6 5 0 2-.3 4-.6 4.3s-1.5 0-2.5-.7-3.2-3.7-4.7-6.7c-2.3-4.3-3.5-5.5-5.7-5.7-1.5-.2-3.8-1-5.1-1.9-1.3-.8-2.3-2.1-2.3-2.9s1.7-2.5 3.9-3.9c2.1-1.4 4.6-4 5.4-5.8.9-1.8 1.8-4 2.1-5s1.1-1.6 1.8-1.4 1.5 2.1 1.7 4.1c.3 2 .9 3.7 1.5 3.7s1.1-1.6 1.3-3.6c.2-2.4-.3-4.3-1.5-5.6-1.3-1.4-2.6-1.8-4.6-1.4-2.4.5-2.8.2-3.4-2.2-.3-1.5-.8-3.3-1-4s-.8-1.2-1.4-1.2-1.1 1-1.1 2.2-.7 4-1.4 6.1c-1.3 3.5-1.2 4 .4 5.5 1.8 1.6 1.8 1.7 0 4.5s-1.8 2.8-2.9.8c-.6-1.2-1.6-2.1-2.1-2.1s-1 .6-1 1.3-.5 1.8-1.2 2.5c-.9.9-1.7.8-3.2-.7-1.1-1-3-2.1-4.1-2.3-1.6-.3-2.1-1.3-2.3-5.1-.3-4.1.1-5.1 2.8-7.7 1.7-1.6 3.1-3.5 3.1-4 .3-.8-.3-1.3-1-1.3m426.8 3.6c-.9-.3-1.8.1-2.1.9s-.3 1.8 0 2.1 1.3.3 2.1 0 1.5-1 1.5-1.5-.7-1.2-1.5-1.5m19.3 0c-2.1-.5-3-.2-4 1.4-.7 1.1-2.3 2-3.5 2-1.3 0-3.5 1.3-5 3-1.9 2.1-4 3.2-6.7 3.6-2.3.3-4.8 1.5-5.8 2.7l-1.8 2.1-1.6-2.2-1.6-2.2-2.9 3.6c-1.6 2-2.9 4.2-2.9 4.9s-.7 1.7-1.6 2.2-1.3 1.4-.9 2 2 1.1 3.6 1.1c2.2 0 3.1.6 3.8 2.8l1 2.8.7-3 1.1-4.2c.2-.7.8-1.2 1.4-1.2s1 3.2 1 8c0 7.2.3 8.3 2.5 10.5 1.3 1.3 3.5 2.5 4.7 2.5s3 .7 4 1.6 2.2 1.3 2.8.9 1.1-1.5 1.1-2.5.8-2.5 1.8-3.2 2.2-2.2 2.7-3.3c.8-1.7.9-1.4 1.2 1.7.2 2.7 1.1 4.2 3 5.5 1.5 1 4.3 2.6 6.2 3.6s3.9 1.8 4.5 1.7c.6 0 2.7-3.5 4.8-7.8 2.6-5.2 3.8-9 3.8-11.9 0-2.7-.5-4.3-1.5-4.7-.8-.3-1.5-1-1.5-1.6s.7-1 1.5-1a1.54 1.54 0 0 1 1.5 1.5c0 1 1 1.5 2.8 1.5 1.7 0 3.7 1.1 5.2 2.7 1.4 1.5 4 3.2 5.8 4 1.8.7 3.2 2 3.2 2.8s1.2 2.8 2.6 4.5 2.7 4.4 2.8 6c.1 1.7 1.6 4.6 3.6 7 2.1 2.5 4.3 4.1 5.6 4.1 1.6 0 2.4-.8 2.9-2.8l1.2-4.4c.4-1.3-.2-1.8-2.8-2l-3.3-.3-.6-8c-.4-4.7-.2-8.5.4-9.2.5-.7 1.9-1.2 2.9-1.2 1.1 0 1.8-.5 1.5-1.2-.2-.7-2-1.4-3.9-1.6-2.3-.2-4 .3-4.8 1.2-.7.9-2.2 1.6-3.3 1.6s-3.5-1.6-5.4-3.6-3.4-4.6-3.4-6c0-1.9-.5-2.4-2.2-2.3-1.2 0-1.7.3-1 .6s1.2 1.1 1.2 1.9c0 .7-.5 1.6-1 2-.6.3-2.7 0-4.8-.7s-4.1-1.8-4.5-2.3-.6-1.9-.3-3 0-2.5-.6-3.2-1.7-1-2.5-.7-1.4 1.1-1.4 1.7-.4 1.7-.8 2.4c-.6 1-1.7.9-5-.4-3.2-1.2-4.1-2.1-3.7-3.4.4-1.1-.4-2.3-2.2-3.5l-2.7-1.8 2.3-1.9c1.3-1 2.1-2 1.9-2.2-.2-.4-1.6-.8-3.1-1.2m41 .7c-.7-.6-1.9-.8-2.5-.6-.7.2-1.2.8-1.2 1.3 0 .4.6 1 1.3 1.3s1.9.2 2.5-.2c.9-.6.9-1-.1-1.8M199 409c-.6 0-1 .5-1 1s.4 1 1 1 1-.5 1-1-.4-1-1-1m565.2 0c-1.2 0-2.2.3-2.2.6s.7 1.2 1.5 2.1c.8.8 1.5 2.4 1.5 3.4 0 1.4.7 1.9 2.5 1.9 2 0 2.5-.5 2.5-2.3 0-1.3-.8-3.1-1.8-4-1-1-2.8-1.7-4-1.7m-187.3 4c-1.8 0-2.8.4-2.4 1 .3.5 1.7 1 3.1 1 1.3 0 2.4-.5 2.4-1s-1.4-1-3.1-1m-18.1 2.9c-.3-1-.6-1-1.2 0-.4.7-.5 1.5-.2 1.9.3.3.9.3 1.2 0 .3-.4.4-1.2.2-1.9m160.8-.9c-.8 0-1.8.5-2.2 1.2-.4.6.1 1.8 1.1 2.5 1.1.8 2.2 1 2.8.4.5-.5.7-1.6.3-2.5s-1.2-1.6-2-1.6m-91.1 2a.47.47 0 1 0 0 1 .47.47 0 1 0 0-1m-313.4 1c-.5 0-1.3.6-1.9 1.3-.7.9-.6 1.8.4 3.2.8 1.1 1.6 1.7 1.8 1.5s.5-1.1.6-1.9.2-2.1.1-2.8c0-.7-.5-1.3-1-1.3m300.7.5c-2-.5-2.9-.2-3.4 1-.4 1 .3 2.5 2 4.1 1.5 1.4 3.5 2.9 4.6 3.5 1 .6 2.6 1 3.4 1s1.7-.9 2-2.1c.4-1.4 0-2.3-1.1-2.6-.9-.3-2.3-1.4-3.2-2.4-.9-1.1-2.8-2.2-4.3-2.5m157.5.8c-.7-.2-1.5.8-1.9 2.2-.4 1.7-.1 3.2.8 4.3.8.9 2 3 2.6 4.5.7 1.6 1.8 2.6 2.4 2.4.7-.2 1.4-1.4 1.5-2.5.2-1.2-.6-3-1.7-4.1s-2.1-3-2.3-4.2c-.1-1.2-.7-2.4-1.4-2.6m-395.4.7c-.5 0-.9.9-.9 1.9 0 1.1.5 2.2 1.1 2.6s1.3.4 1.6.1.2-1.5-.1-2.6c-.4-1.1-1.2-2-1.7-2m-16.9 2c-.5 0-1.2.5-1.6 1.1s.2 1.9 1.4 2.8 2.2 2.6 2.4 3.9.8 2.3 1.3 2.3 1.1-1.1 1.3-2.3c.2-1.3-.7-3.5-1.8-5-1.2-1.6-2.5-2.8-3-2.8m187.5 2c-1.2-1-1.6-.8-2.1 1.3-.3 1.4-.3 3 0 3.6.5.8 1.1.8 2.1-.1.8-.6 1.4-1.7 1.4-2.4s-.6-1.7-1.4-2.4m126.2.1c-2.3.1-3.2.3-2.1.6 1.2.2 2.4 1.3 2.7 2.4s1.4 1.9 2.4 1.9c1.1 0 2.2-.3 2.6-.6.3-.3.2-1.5-.4-2.5-.7-1.4-2-1.9-5.2-1.8M256 426c-.8-1.2-1-1.2-1.6.3-.4 1-.4 2.1 0 2.4.4.4 1.1.2 1.6-.3s.6-1.5 0-2.4m309.4 0c-.6 0-2.1 1.1-3.4 2.4s-2 2.9-1.6 3.5 2.1 1.1 3.9 1.1 3.7-.5 4.4-1.1.9-1.9.5-2.8c-.3-.9-1.1-2-1.7-2.4-.5-.3-1.5-.7-2.1-.7m-253.3 3.2c-.9-2.5-1-2.4-1 1.8 0 3.6.2 4.1 1 2.7.7-1.2.7-2.7 0-4.5m291.4-2.2c-.8 0-1.5.5-1.5 1s.7 1 1.5 1 1.5-.5 1.5-1-.7-1-1.5-1M382 429c-.6 0-1 4.2-1 10.5s.4 10.5 1 10.5 1-4.2 1-10.5-.4-10.5-1-10.5m315.2.8c-1-.3-2.7-.1-3.9.3s-2.3 1.7-2.6 2.8-.1 2.4.5 2.7c.6.4 1.4-.1 1.9-.9.5-.9 2.2-1.9 3.9-2.2 1.7-.4 2.8-1 2.5-1.5-.2-.4-1.3-1-2.3-1.2m-487.8.2c-.2 0-.7 1.4-1.1 3.1-.4 2-1.5 3.4-3 4-1.3.5-2.4 1.3-2.4 1.8s.7 2.5 1.5 4.5c1 2.4 2.2 3.6 3.5 3.6 1.1 0 2-.6 2-1.4s-.4-1.7-1-2.1-1-1.3-1-2.1 1.1-2 2.5-2.6c1.9-.9 2.5-1.9 2.5-4.4 0-2-.6-3.5-1.6-3.8-.8-.3-1.7-.6-1.9-.6m84.6 0c-1.3 0-2 .5-1.8 1.2s1 1.2 1.8 1.2 1.5-.6 1.8-1.2c.2-.7-.5-1.2-1.8-1.2m426 0a1.08 1.08 0 0 0-1 1 1.08 1.08 0 0 0 1 1 1.08 1.08 0 0 0 1-1 1.08 1.08 0 0 0-1-1m-561 3c-1.6 0-3 .4-3 1 0 .5.8 1.9 1.7 3s2.3 2 3 2c.8 0 1.3-1.2 1.3-3 0-2.7-.3-3-3-3m128.7 0c-.7 0-4.8 3.6-9.2 8-6.3 6.3-7.7 8.2-6.7 9.2s3-.5 9.7-7.2c4.6-4.6 8.2-8.8 7.9-9.2s-1.1-.8-1.7-.8m-29 1.3c-.4-.4-.7-.1-.7.7s.3 1 .7.7c.3-.4.3-1 0-1.4m481.7 1.7c-.8 0-1.7.6-2 1.3s-.4 5.6-.2 10.8c.3 8.5.5 9.4 2.2 9.4 1.3 0 2.2-1 2.7-2.7.4-1.5 1.4-3.4 2.3-4.3s1.6-3.1 1.6-4.9c0-2.1-.9-4.5-2.6-6.4-1.4-1.8-3.2-3.2-4-3.2m39.9.3c-.6-.2-1.5.1-1.8.7-.4.6-.4 2.2-.1 3.6s1.2 2.3 1.8 2.1c.7-.2 1.2-1.7 1.2-3.2s-.4-3-1.1-3.2m-471.7.7c-.2 0-.7.5-1.1 1s-.1 1 .4 1 1.1-.5 1.1-1-.2-1-.4-1m412 0c-.2 0-.7.5-1.1 1s-.1 1 .4 1c.6 0 1.1-.5 1.1-1s-.2-1-.4-1m-150.4 2c-.9 0-2.5.5-3.4 1-1 .6-1.8 1.9-1.8 3s.5 2.9 1 4c.6 1.1 1.8 1.9 2.8 1.9s2.8-1 4-2.3 2.2-3.2 2.2-4.4c0-1.1-.7-2.4-1.6-2.7-.9-.2-2.3-.5-3.2-.5m-265.7 2a.47.47 0 1 0 0 1 .47.47 0 1 0 0-1m63.5 0a1.08 1.08 0 0 0-1 1 1.08 1.08 0 0 0 1 1 1.08 1.08 0 0 0 1-1 1.08 1.08 0 0 0-1-1m-66 3c-.8-1.2-1-1.2-1.6.3-.4 1-.4 2.1 0 2.4.4.4 1.1.2 1.6-.3s.6-1.5 0-2.4m482.2 3.8c-.8-.8-1.3-.4-2 1.3-.5 1.3-.7 5.9-.4 10.2s.9 8 1.4 8.3 1.4-.7 2-2.3.9-5.9.6-9.6c-.3-3.8-1-7.3-1.6-7.9M256 453.5c-.7-1.9-.8-1.9-1.5.3-.4 1.3-.5 2.6-.1 2.9.3.3 1 .2 1.5-.3s.5-1.8.1-2.9m116-1.5c-.7 0-1 .3-.7.7.4.4 1 .4 1.3 0 .4-.4.1-.7-.6-.7m323.5 0a.47.47 0 1 0 0 1 .47.47 0 1 0 0-1m-316.3 2.6c-.4-.3-1.4-.1-2.1.3-1.1.7-1.1 1.2.1 2.9.8 1.2 1.8 1.8 2.1 1.4s.7-1.5.7-2.4-.4-1.9-.8-2.2m178.7.4c-.6 0-.8.5-.4 1s.8 1 1.1 1c.2 0 .4-.5.4-1s-.5-1-1.1-1m142.2 0h-3.4l1.9 2.2c1 1.2 3 3.4 4.4 4.8s4.4 3.8 6.7 5.3 5.5 2.7 7 2.7 3.8-.7 5-1.6c2.1-1.5 2.1-1.7.7-4.5-1.4-2.7-2-2.9-6.7-3-4.3 0-5.8-.6-8.7-3-2.3-2-4.5-2.9-6.9-2.9m49.3 0c-1.5 0-2.3.4-1.9 1 .3.5 1.5 1 2.6 1s1.9-.5 1.9-1-1.2-1-2.6-1m-183.1 2.8c-1-.2-2.8-.2-4.1-.1-1.3.2-2.1.9-1.9 1.5s1.9 1.2 3.7 1.2 3.5-.5 3.7-1.1c.2-.5-.4-1.2-1.4-1.5m-360.3.9c-.4-.4-2 .3-3.6 1.7l-2.9 2.5 3.3 3.1c1.8 1.7 3.7 2.8 4.2 2.6.5-.3.6-2.4.3-4.8s-.9-4.7-1.3-5.1m46-.7c-.6 0-1.3.7-1.6 1.5s-.3 2.2 0 3 1 1.5 1.6 1.5 1-1.4 1-3-.5-3-1-3m17.5 1a.47.47 0 1 0 0 1 .47.47 0 1 0 0-1m478.9 2c-.3 0-.7.7-1 1.5s-.3 2.2 0 3 1.5 1.5 2.5 1.5c1.8 0 1.9-.2.5-3-.9-1.6-1.8-3-2-3M256 465c-1.5 0-2 .7-2 2.5 0 1.4-.8 2.9-2 3.5-1.6.9-2 2.1-2 6 0 3.6.4 5 1.4 5 .9 0 2.1-2.3 3.1-5.8.9-3.2 2.1-6.5 2.6-7.5s.9-2.2.9-2.8c0-.4-.9-.9-2-.9m223.7.2c-3.1-.3-3.9.1-4.6 2-.7 1.8-.5 2.5.9 3 1 .4 2.3 1.6 2.9 2.8.7 1.3 2.1 2.1 3.7 2.1 1.4 0 3.2.7 3.8 1.7 1.1 1.5 1.3 1.4 1.7-1 .4-1.9 0-2.8-1.2-3.2-.9-.3-2.1-2-2.6-3.8-.7-2.9-1.4-3.3-4.6-3.6m-97.7.8a1.08 1.08 0 0 0-1 1 1.08 1.08 0 0 0 1 1 1.08 1.08 0 0 0 1-1 1.08 1.08 0 0 0-1-1m88.5 3a.47.47 0 1 0 0 1 .47.47 0 1 0 0-1m260.2.3c-.4-.4-.7-.1-.7.7s.3 1 .7.7c.3-.4.3-1 0-1.4m56.2.7c-.5 0-1.3.8-1.8 1.8-.6 1.1-.6 2.4 0 3.5.5.9 1.4 1.7 1.8 1.7.5 0 1.1-.8 1.5-1.9.3-1 .3-2.6 0-3.5s-1-1.6-1.5-1.6m-401.8 1c-.5 0-1.2.6-1.5 1.4s.1 1.9.8 2.5c1 .8 1.5.8 2 0 .4-.6.4-1.8.1-2.5-.2-.7-.9-1.4-1.4-1.4m370.1 1c-.4 0-1.4.4-2.2.9-1.3.8-1.2 1 .2 1.6.9.4 2.2.3 2.7 0 .6-.4.8-1.1.5-1.6s-.8-.9-1.2-.9m-550.4 3.5c-1.8-2.1-2.5-2.4-3.5-1.4-.8.8-1.2 4.4-1.2 10.1 0 4.9.5 9.7 1.1 10.8s1.5 1.7 2 1.4.9-2.5.9-4.9c0-2.6.6-4.8 1.5-5.6.8-.7 1.5-2.7 1.5-4.6-.1-1.9-1-4.2-2.3-5.8M691 477c-.5 0-1 .9-1 1.9 0 1.1.5 2.2 1 2.6s1.5.3 2 0c.7-.4.7-1.3 0-2.6-.6-1-1.5-1.9-2-1.9m98.8 2.2c-1.2-.2-1.9.5-2.4 2.3-.4 1.4-.5 2.8-.3 3s1.3.5 2.4.7c1.6.3 2-.2 2-2.6 0-2.1-.6-3.2-1.7-3.4m-641 4c-.9-.2-2.2.6-2.8 1.8-.8 1.4-.8 2.5-.2 3.2.5.5 1.8.8 2.8.6 1.2-.2 1.9-1.2 1.9-2.8 0-1.5-.6-2.6-1.7-2.8m99.8-.2c-.9 0-1.6.5-1.6 1s.4 1 .9 1 1.2-.5 1.6-1-.1-1-.9-1m140.4 0c-.4 0-1.1 1-1.4 2.2s-.3 3.2 0 4.5 1 2.3 1.4 2.3c.5 0 1.1-1.1 1.5-2.4.3-1.3.3-3.4 0-4.5-.3-1.2-1-2.1-1.5-2.1m274.8 3.1c-.2.1-1.8 1.1-3.5 2.2-1.8 1.2-3.1 2.6-2.9 3.1s1.5 1.3 3.1 1.7c1.5.4 3.5 1.4 4.4 2.2 1 .9 3.4 1.3 6.4 1.2 2.6-.1 5-.5 5.4-.8.3-.3.3-1.1-.1-1.6-.4-.6-1.8-1.1-3.2-1.1-1.6 0-3.8-1.3-5.9-3.5-1.9-1.9-3.5-3.5-3.7-3.4M227 487c-.7 0-1 .3-.7.7.4.4 1 .4 1.3 0 .4-.4.1-.7-.6-.7m565.5 3c-1.4 0-2.5.5-2.5 1s.4 1 .9 1 1.6.3 2.5.6c1 .4 1.6.1 1.6-1 0-1-.9-1.6-2.5-1.6M435 491c-.5 0-1 .5-1 1.1s.5.8 1 .4 1-.8 1-1.1c0-.2-.5-.4-1-.4m-186.8 2c-.4 0-1.4.5-2.2 1-1.2.8-1.1 1 .8 1 1.2 0 2.2-.4 2.2-1s-.3-1-.8-1m548.1 3c-1.3 0-2.3.4-2.3.8 0 .5.7 2.3 1.6 4s2 3.4 2.5 3.7.9 1.4.9 2.4.6 2.3 1.4 3c1 .9 1.7.8 2.6-.3 1-1.2.6-2.7-1.6-7.5-2.3-4.9-3.3-6.1-5.1-6.1M393 499.5c-.5-.3-1.3.5-1.6 1.9s-.4 3.2 0 4.1c.3.9 1.1 1.3 1.6.9.6-.3 1-1.9 1-3.5s-.4-3.1-1-3.4m394.1-.5c-.5 0-1.4.6-2.1 1.4s-1.1 2.5-.9 3.7c.2 1.3 1.1 2.4 2.1 2.6 1.4.3 1.8-.4 1.8-3.7 0-2.2-.4-4-.9-4M437 501c-2-1.1-2.1-1-1.4 1.2.4 1.3 1.2 2.9 1.8 3.6.7.8 1.4 1 2 .3.5-.5.7-1.7.4-2.5-.4-.8-1.7-2-2.8-2.6m-181.2 9.3c-.3-1.8-.5-1.8-3.1-.4-1.5.9-2.6 2-2.4 2.6.2.5 1 1.1 1.7 1.2.8.1 2-.1 2.8-.6.8-.4 1.2-1.7 1-2.8m-38.5.4c-.9-2.1-1-2.1-1.5-.2-.3 1.1-.2 2.9.2 4 .7 1.9.8 1.9 1.5.2.4-1 .3-2.8-.2-4m243.4-.1c-1.2-1.6-1.4-1.6-2.7-.1-1.2 1.4-1.2 1.8.1 2.6.8.5 1.7.9 2.1.9s.9-.4 1.2-.8c.3-.5 0-1.7-.7-2.6m164.8-.3c-.6-.2-2.7 1.5-4.8 3.8-2 2.3-3.7 4.5-3.7 5s.6.8 1.4.8 1.7-.4 2-.9 1.9-1.2 3.6-1.6c2.7-.6 3-1 2.7-3.8-.1-1.6-.7-3.1-1.2-3.3m180.3 3.9c-.9-.7-2.2 0-4.8 2.8-2.7 2.9-3.7 3.4-4.3 2.4-.4-.8-1.4-1.4-2.1-1.4s-2.1-.9-3.1-2c-1.2-1.3-2.8-1.9-4.4-1.8-2.5.3-2.6.5-2.8 9.2-.2 6.3.2 10.1 1.2 12.8.8 2.1 1.5 5.4 1.5 7.4 0 2.1.6 3.7 1.4 4.1.8.3 2.5-.2 3.9-1.1 1.8-1.1 3.6-1.4 6.4-1 3.6.6 4 .4 4.6-1.7.5-1.9.8-2.1 1.9-1 1 1.1 1 1.5-.5 2.6-1 .7-1.8 2.4-1.8 3.7s-.9 3.7-2 5.4-2 4.2-2 5.7-.5 3-1 3.3-1 1.2-1 2c0 .9.7 1.2 2.1.8 1.1-.3 2.8-1.6 3.6-2.9s1.3-3 1-3.8.1-2.2 1-3c.9-.9 1.8-3.5 2.1-5.8s1.2-4.7 1.9-5.2c1-.8 1.3-3.3 1.1-10.4-.2-6.2-.7-9.5-1.5-9.8s-1.4 1.4-1.9 4.7c-.4 3.1-1.1 5-1.8 4.7-.6-.2-1.3-2.4-1.4-5-.2-3.8.1-4.8 1.8-5.7 1.5-.8 2.1-2.1 2.1-4.9 0-2.3-.6-4.5-1.2-5.1m-564.2.1c-.3-.3-.6.3-.5 1.3 0 1.2.3 1.4.6.6.3-.7.2-1.6-.1-1.9M471 514c-6.4 0-7 .2-8.9 2.9-1.5 2.1-1.7 3-.8 3.4.7.2 3.7.2 6.8 0 4.3-.4 5.8-.1 6.9 1.1.7.9 1.9 1.6 2.7 1.6.7 0 1.8-.9 2.4-1.9.6-1.1 1-2.8 1-3.9s-.7-2.2-1.6-2.6-4.7-.6-8.5-.6m190.1.6c-.5-.3-1.1-.2-1.5.1-.4.4-.6 1.7-.6 3 0 1.4.6 2.3 1.5 2.3s1.5-.9 1.5-2.4c0-1.4-.4-2.7-.9-3M396 515c-.5 0-1 .4-1 .9s.5 1.2 1 1.6 1-.1 1-.9-.5-1.6-1-1.6m-175.5 3c-1.2-1-1.7-.8-2.5 1.6-.8 2-.7 3.6.1 5.5.6 1.5.9 3.2.6 3.7s.1 1.5.9 2.2 2.6 1 4 .6c1.5-.4 2.5-1.3 2.5-2.5 0-1-.9-3-2-4.4s-2-3.2-2-4c-.1-.8-.8-2-1.6-2.7m34.5-.9c-.3 0-1.6.5-2.9 1l-2.4 1 2.8 2.6c1.5 1.4 2.9 2.4 3.1 2.2s.9-1.4 1.5-2.7c1-1.9 1-2.5-.1-3.2-.9-.6-1.7-.9-2-.9m523.4-.1c-.2 0-.4 1.5-.4 3.4s.3 4.1.6 5 1.2 1.6 2 1.6c1 0 1.4-1.3 1.4-4.4s-.5-4.6-1.6-5c-.9-.3-1.8-.6-2-.6m-291 2c-.2 0-.4.9-.4 2s.4 2 .9 2 .7-.9.4-2-.7-2-.9-2m-273.8 7.3c-.3-.3-.6.3-.5 1.3 0 1.2.3 1.4.6.6.3-.7.2-1.6-.1-1.9m35.7 1.6c-.5-.5-1.3-.6-1.6-.3-.4.4-.7 1.5-.7 2.5s.5 1.8 1 1.8c.6 0 1.3-.7 1.6-1.6.4-.7.2-1.9-.3-2.4m150.2 2.1a.47.47 0 1 0 0 1 .47.47 0 1 0 0-1m292.4 2c-.5 0-1.2 1.2-1.5 2.6-.4 1.4-.2 3 .3 3.5.6.6 1.4.5 2.1-.4.6-.7.9-2.3.5-3.5-.3-1.2-.9-2.2-1.4-2.2m-27.8 2c-.5 0-1.5.7-2.2 1.6s-2.8 2.2-4.7 3c-2 .8-3.1 1.9-2.7 2.5s1.6 1.5 2.8 1.9c2.1.8 2.1.9-.6 1.9-1.5.6-2.8 1.8-2.8 2.7s-2.9 4.7-6.5 8.4-6.5 7.4-6.5 8.3.7 2.1 1.5 2.8 1.5 1.6 1.5 2.1c0 .4-1.2 1-2.7 1.1-1.5.2-2.9.9-3.1 1.6-.2.8.8 1.5 2.7 1.9 2.4.5 3.1 1.2 3.1 2.9 0 1.2-.7 2.8-1.5 3.5s-1.5 2-1.5 2.9 1.2 2.2 2.7 2.9 2.7 1.1 2.8 1 .7-1.8 1.3-3.8 1.2-4.5 1.2-5.6.7-2.3 1.6-2.7c.9-.3 1.9-.6 2.3-.6s1.3 1.2 2 2.7c.9 1.9 1.5 2.3 2.3 1.6.6-.6 1.4-2.6 1.7-4.4.4-1.8 1.1-3.3 1.6-3.3s1.5 1.3 2.3 2.8c.7 1.5 2.1 2.7 3.1 2.7s2.3 1.1 2.9 2.5 1.6 2.5 2.1 2.5 1.7-1.3 2.5-3c.8-1.6 1.5-5.3 1.5-8.2s-.7-6.4-1.5-7.8-1.4-5.2-1.5-8.6c0-4.2-.5-6.5-1.5-7.4-.8-.7-1.5-2.8-1.5-4.6 0-2-.8-4.2-2-5.4-.9-1.5-2.2-2.4-2.7-2.4M252 536c-.6 0-1 .5-1 1.1s.4.8 1 .4 1-.8 1-1.1c0-.2-.4-.4-1-.4m147.5 0a.47.47 0 1 0 0 1 .47.47 0 1 0 0-1m26.7 4c-1-1.2-2.1-1.8-2.5-1.4s-.7 1.8-.7 3c0 1.3.5 2.6 1.2 3 .6.4 4.1.7 7.7.6 4.7-.1 6.9-.5 7.7-1.7.6-.9 2-1.6 3-1.6s2.9-.3 4.2-.6c1.7-.5 2-.8 1-1.5-.7-.5-3.1-.9-5.4-.9-2.2 0-5.1.7-6.4 1.6s-3.7 1.6-5.3 1.6c-1.6.1-3.5-.9-4.5-2.1M118 540c-.7 0-1 .3-.7.7.4.4 1 .4 1.3 0 .4-.4.1-.7-.6-.7m114.7 3c-1.3 0-1.2.6.4 4 1.1 2.2 2.5 4 3.3 4s1.6-.8 1.8-1.8c.3-1.1-.4-2.7-1.8-4-1.2-1.2-2.9-2.2-3.7-2.2m220 1.8c-.3-.7-.5-.3-.6.9-.1 1.6.7 2.3 2.8 2.8 2.5.6 3 1.2 3.8 5.3.8 4.6.9 4.7 4.9 5 2.8.2 4.5-.2 5.4-1.2.7-.9 2.1-1.5 3.1-1.5s2.1-.4 2.3-.8c.3-.5-1.4-2.7-3.8-5l-4.3-4.2-3.9 1.6c-3.5 1.5-3.9 1.5-4.7 0-.5-.9-1.7-1.6-2.8-1.6-.9-.1-2-.7-2.2-1.3m263.5 0c-2.8-.4-3.2-.1-3.2 1.6 0 1.1.7 3.2 1.5 4.6s1.4 4.3 1.4 6.5-.6 5.1-1.4 6.5-1.4 4.5-1.5 6.9c0 3.8.2 4.2 1.5 3.1 1.2-1 1.8-1 3 0s1.5 3.7 1.5 12 .3 11 1.5 12c.9.8 1.5 3 1.5 5.9 0 3.7.5 5.2 2.4 6.9 1.9 1.8 3.3 2.2 6.7 1.9 3.9-.3 4.6-.7 6.6-4.3 1.2-2.2 2.3-5.1 2.3-6.4s.8-3 1.8-3.7c1.6-1.2 1.6-1.4 0-3.2-1-1.1-1.8-3.6-1.8-5.8s-.7-5-1.5-6.4c-.9-1.6-1.4-5.4-1.5-10.4 0-6.7-.5-8.9-3.1-14.5l-3.1-6.6-1.7 3.2c-1.3 2.5-1.9 3-2.9 2-.7-.7-1.2-2.4-1.2-3.8 0-1.6-1.1-3.6-2.8-5.2-1.5-1.2-4.2-2.6-6-2.8m-13.1 14.5c-.7-1.3-.9-1.2-1.5.2-.4.9-.3 3.6 0 5.9l.7 4.2.8-4.4c.5-2.5.5-5.1 0-5.9M279.5 561a.47.47 0 1 0 0 1 .47.47 0 1 0 0-1m-73.6 1c-.5 0-1.2.7-1.5 1.5s-.3 1.9.1 2.5 1.3 1 2.1 1 1.4-.4 1.4-.9-.3-1.6-.6-2.5-1-1.6-1.5-1.6m-66.9 5c-.5 0-1.1.4-1.5.9-.3.5-.1 1.2.4 1.6.6.3 1.5.3 2 0 .6-.3.8-1 .4-1.6-.2-.5-.8-.9-1.3-.9m144.6 0c-.2 0-.7.5-1.1 1s-.1 1 .4 1 1.1-.5 1.1-1-.2-1-.4-1m270.8 0c-.9 0-1.4.5-1.2 1.2a2.55 2.55 0 0 0 1.6 1.6c.7.2 1.2-.3 1.2-1.2a1.58 1.58 0 0 0-1.6-1.6M273 568c-.5 0-1 .5-1 1.1s.5.8 1 .4 1-.8 1-1.1c0-.2-.5-.4-1-.4m-62.9 1.6c-.5-.3-1.4.1-2.1.9s-.9 1.9-.6 2.5c.4.6 1.3 1 2.1 1s1.4-.9 1.4-1.9-.3-2.2-.8-2.5m87.5 4.7c-.3-.3-.6.3-.5 1.3 0 1.2.3 1.4.6.6.3-.7.2-1.6-.1-1.9m137.9.4c-.8-.3-1.7-.1-2.1.4-.3.5.3 1 1.5 1 1.1 0 2.1-.2 2.1-.4s-.7-.7-1.5-1m17.6-.7c-2.6 0-5.1.3-5.4.7-.4.4-.7 1.5-.7 2.5 0 1.5.8 1.8 4.4 1.8 2.7 0 5-.6 6-1.6.9-.9 1.3-2 1-2.5s-2.7-.9-5.3-.9m97.9 0c-.5 0-1.1.4-1.4.9s-.3 1.6 0 2.5 1 1.6 1.4 1.6 1.1-.7 1.4-1.6.4-2 0-2.5c-.3-.5-.9-.9-1.4-.9m-408.5 1a.47.47 0 1 0 0 1 .47.47 0 1 0 0-1m134 0a.47.47 0 1 0 0 1 .47.47 0 1 0 0-1m28.7 2.8c-.8-.8-1.3-.6-1.8.6-.4 1-.2 2.2.4 2.8.8.8 1.3.6 1.8-.6.4-1 .2-2.2-.4-2.8m326.8.2a1.08 1.08 0 0 0-1 1 1.08 1.08 0 0 0 1 1 1.08 1.08 0 0 0 1-1 1.08 1.08 0 0 0-1-1m-42.5 2.5c-6.2-.3-10.7 0-11.8.6-1.4.9-1.6 1.4-.6 2.5.9 1 3.7 1.4 10.6 1.4 5.2 0 10.2-.4 11.2-.9s2.3-.6 3.1-.1 2.2.4 3.2-.1 1.6-1.4 1.2-1.9c-.3-.5-2-1-3.8-1-1.7-.1-7.6-.3-13.1-.5m-312.1 4.4c-.9-2.1-.9-2.1-2.7-.1-1.7 1.9-1.7 2 .3 2.7 1.2.4 2.4.4 2.7.1s.2-1.5-.3-2.7m359.7-.3c-1.9-1.7-2.1-1.7-2.7-.1-.4.9-.2 2.2.4 2.7.7.7 1.6.7 2.7.1 1.4-.8 1.4-1.1-.4-2.7m76.5-1.3c-.3-.3-.6.3-.5 1.3 0 1.2.3 1.4.6.6.3-.7.2-1.6-.1-1.9M46.4 585c-.9 0-1.4.5-1.2 1.2a2.55 2.55 0 0 0 1.6 1.6c.7.2 1.2-.3 1.2-1.2a1.58 1.58 0 0 0-1.6-1.6m501.2.3c-.3-.3-.6.3-.5 1.3 0 1.2.3 1.4.6.6.3-.7.2-1.6-.1-1.9m73.9.7a.47.47 0 1 0 0 1 .47.47 0 1 0 0-1m-218.6 1c-.4 0-1.1.9-1.4 1.9s-1.3 2.2-2.1 2.5-1.5 1.3-1.5 2.2-.8 2.9-1.7 4.5c-1.6 2.7-1.6 3 0 4.2 1 .8 1.8 3 2 5.8l.3 4.5 11.3.3c6.4.2 12.1-.2 13.2-.8 1.3-.7 2.1-.7 2.6 0 .3.6 1.3 1 2.1 1s1.7-.7 2.1-1.6c.3-.9 0-2-.7-2.4-.8-.5-1.9-.4-2.7.2-1 .8-2 .8-3.8-.1-1.4-.6-3.2-1.1-4-1.1s-4.6-3.2-8.5-7.2c-3.8-3.9-7-7.5-7-7.9s.7-1.3 1.5-2c1.2-1 1.2-1.6.4-2.6-.7-.8-1.6-1.4-2.1-1.4m260.7 0c-.8 0-1.7.5-2.1 1s-2.6 1-5 1c-3.8 0-4.5.3-4.9 2.2-.3 1.2-.6 3.1-.8 4.2-.2 1.2-1.5 2.2-3.2 2.7-1.6.4-3.3 1.5-3.8 2.3s-1.9 1.5-3.1 1.5-2.5.3-2.9.6.6 2.8 2 5.5l2.6 4.9h11.1c11 0 11.1 0 14.1-3.1 2.5-2.5 2.7-3.2 1.5-4-.8-.5-1.8-.9-2.3-.9-.4 0-1 .7-1.4 1.5-.3.8-.9 1.5-1.4 1.5s-1.1-.9-1.5-2.1c-.4-1.3 0-2.8 1.1-4 1.7-1.8 1.7-2 0-3.9-1.6-1.8-1.6-2-.2-2.6 1.1-.4 1.6-1.8 1.6-4.5 0-2.6-.4-3.8-1.4-3.8m-143.1 4.1c-.6-.6-2.6-.1-5.5 1.5-2.5 1.3-5 2.4-5.6 2.4s-1.7.7-2.4 1.5-2.9 1.5-5 1.5c-2.5 0-4.3.7-5.5 2-1 1.1-3 2-4.5 2s-3.5.7-4.6 1.5-3.1 1.5-4.6 1.5-3.4.7-4.2 1.5-2.9 1.5-4.6 1.5-4 .5-5.1 1.1c-1.6.9-1.8 1.4-.8 2.5 1 1.2 5.1 1.4 21.4 1.4 15 0 20.5-.3 21.2-1.2.5-.7 2.4-4 4.1-7.2 1.7-3.3 3.3-6.7 3.6-7.5s1.1-2.3 1.8-3.2c.8-1.2.9-2.2.3-2.8m150.6-1.1c-.5 0-1.2.7-1.5 1.6s-.4 2 0 2.5c.3.5 1 .7 1.5.3.5-.3.9-1.4.9-2.5s-.4-1.9-.9-1.9m-35 2.5c-.5-.3-1.2.3-1.6 1.4s-.4 2.5 0 3c.3.6 1.1.8 1.6.4.5-.3.9-1.4.9-2.5s-.4-1.9-.9-2.3M48.4 595c-.5-.5-1.5-.5-2.3 0s-1.1 1.6-.8 2.5 1.1 1.6 1.7 1.6 1.3-.7 1.7-1.6c.3-.9.2-2-.3-2.5m619.2 0a1.58 1.58 0 0 0-1.6 1.6c0 .9.5 1.4 1.2 1.2a2.55 2.55 0 0 0 1.6-1.6c.2-.7-.3-1.2-1.2-1.2M227 596c-.7 0-1 .3-.7.7.4.4 1 .4 1.3 0 .4-.4.1-.7-.6-.7m73.9 0c-.6 0-.8.5-.4 1s.8 1 1.1 1c.2 0 .4-.5.4-1s-.5-1-1.1-1m250.1 0c-.5 0-1 .5-1 1.1s.5.8 1 .4 1-.8 1-1.1c0-.2-.5-.4-1-.4m-316.4 1.4c-1.1-.4-1.7.2-2.2 2.2-.3 1.6-1 3.9-1.6 5.2-.5 1.3-.8 2.5-.7 2.6.2.1 2.1 1.2 4.4 2.5 3.1 1.7 4.6 2 5.9 1.3 1.7-.9 1.6-1.1-.4-2.2-1.2-.6-1.9-1.6-1.6-2.1s1.4-1 2.5-1 2.2-.5 2.6-1.1-.7-2.4-2.6-4c-1.8-1.6-3.6-2.9-4.1-2.9-.3.1-1.3-.2-2.2-.5m312.4.6c-1.3 0-2 .7-2 2s.7 2 2 2 2-.7 2-2-.7-2-2-2m-323.6 1c-.9 0-1.3.5-.9 1s1 1 1.6 1c.5 0 .9-.5.9-1s-.7-1-1.6-1m567.3 3.2c-1-.2-2 .4-2.2 1.2l-1 3.1c-.3.8-1.3 1.5-2.4 1.5s-2.5.7-3.1 1.5c-.7.8-.9 1.9-.6 2.5.4.6 2.6 1 5 1 2.5 0 4.8-.6 5.5-1.4s1-3.1.9-5.2c-.2-2.8-.8-4-2.1-4.2m-563.2.8a.47.47 0 1 0 0 1 .47.47 0 1 0 0-1m-179.4 1.5c-.5-.3-1.6.1-2.5 1s-1.6 2.4-1.6 3.4.7 2.4 1.5 3c.8.7 1.9.9 2.5.6.6-.4 1-2.2 1-4s-.4-3.6-.9-4m112 1.5c-.6 0-1.1.3-1.1.8 0 .4 1.1 2.1 2.4 3.8 2.2 2.8 2.6 2.9 4.1 1.4s1.4-1.8-1.3-3.8c-1.7-1.2-3.5-2.2-4.1-2.2m92 2.6c-.5-.3-1.5.2-2.2 1-1.1 1.3-1.1 1.7.1 2.4.8.5 1.7.6 2.2.4.4-.3.8-1.1.8-1.9s-.4-1.6-.9-1.9M544 608c-.4 0-1 .7-1.3 1.5s-.1 1.7.4 2.1c.5.3 1.4.3 1.9 0s.7-1.3.4-2.1c-.4-.8-1-1.5-1.4-1.5m233.7 1.3c-1.6-1.6-1.7-1.6-2.3.1-.4 1-.2 2.3.5 2.9.8.8 1.4.8 2.3-.1 1-1 .8-1.6-.5-2.9" fill-rule="evenodd" fill="#050505"/></svg>