<svg xmlns="http://www.w3.org/2000/svg" id="svg232" width="400" height="400" version="1.0" viewBox="0 0 300 300">
    <style>
        @keyframes glow {
            0% {
                filter: drop-shadow(16px 16px 16px transparent) brightness(100%) hue-rotate(360deg)
            }

            to {
                filter: drop-shadow(16px 16px 20px rgba(255, 0, 0, .8)) brightness(200%) hue-rotate(360deg)
            }
        }

        #svg232 path {
            filter: drop-shadow(16px 16px 20px rgba(255, 0, 0, .8)) brightness(100%) hue-rotate(360deg);
            animation: glow 2s ease-in-out infinite alternate
        }

        .yak {
            fill: #00000
        }

        .yak:hover {
            fill: #aaffc4
        }
    </style>
    <path
        d="M0 8v8l1-7V1h26l25 1v1l1 5v5l1-7c0-3 2-5 5-5 2 0 2 0 2 2 0 4 0 4 2 2s2-2 3-1 1 0 1-1c1-2 2-2 4-2 4 0 4 0 4 2v3l1-1c0-2 2-3 6-4 2 0 2 0 1 1l-2 1-1 2-2 4c-2 2-2 2-2 0h-1v2c1 1 1 2-1 6l-2 4v-3c0-3 0-3-1-1l-1 4v3c-2 3-3 2-3 0v-4l-1 3c0 3 0 3-1 2l-1-2-2-2c-1-1 0-2 2-3l3-2 2-2 2-1 1-1v-2l-1 1-2 2c-2 1-2 1-2-2V7c-1 0-2 1-1 4 1 4 1 4-4 6l-6 4c-1 2-1 2 2 1 3-3 3-2 3 1-1 2-4 5-6 5l-1-4c-1-4-1-4-1 1 0 6 0 6 2 4h2l1 2c0 2-3 6-4 4l-2 2v1l1 3v5l1-6c0-2 0-3 2-4 2 0 5 2 5 4h2c3 0 3 0 3 2l-2 3-1 2-1 7v7l-1 3c-2 1-2 1-2-1 0-3 0-3-2-2-2 3-3 2-3-1s4-5 4-2l1-1v-4c0-3 0-4 2-5 1-1 1-1-1-1l-3 2-3 1-2 1v1l1 3c0 2-1 4-4 4v-7l-1 4c0 3-1 4-2 5h-2l-1 1c-1 2 0 2 3 0l2-1h2c2-3 3-2 3 0 0 4-4 6-4 3-1-1-1-1-1 1l-1 2v1l1 1-3-1h-2c-1 2-3 0-3-2v-3l-1 1c0 1-1 1-2-1-2-1-2-2-1-3l3-1c1 1 1 0 1-4l1-4v-1c-1-1-2 0-3 1v1l1 3c0 3-1 4-5 4-1 1-2 0-2-1v-1h-1l1-1v-3c-1-3 0-4 4-6l1-2v-7l-2 1c-2 2-3 1-3-3l1-6 1-2c2-2 5-11 4-11l-1-2 1-1c1 1 1 1 1-1l-1-2-10 20c-5 15-1 34 9 41a186 186 0 0 1 12 9l-8-7c-10-8-14-17-14-30l1-6c0 2 0 2 1 1s1-1 1 1l-1 2v10c0 3 0 3 1 1s1-2 1 1c-1 7 8 17 15 17 4 0 12-3 16-7 3-3 4-3 4 0 1 3-4 12-5 10v1l-1 2c-1-1-1 12-1 26 0 11 0 11-2 11l-4 1c-1 1-1 0-1-5l-1 6c-1 10-2 11-4 13-3 3-3 5-2 13v7H1v-4l-1 6 1 11h3c1 1 1 1-1 1-4 0-4 4 0 4l3 1H0v20h300V0H0v8zm66-7-2 2c-2 1-2 1-2-1l2-1h2zm12 1h-2l1-1 1 1zm109-1c0 1-8 5-13 6h-10c-5-1-13-5-13-6h36zM37 15l-1 2-1-1 2-1zm-1 4 1-1-2 5c-1 2-2 3-2 1 1-2 1-2-1 0l1-3 2-2h1zm-5 10-1 2-1 1c-1-1 1-5 2-4v1zm30 0 3 3v1c-1 0-6-3-6-5s2-1 3 1zm-30 5-1 1h-2l2-2 1 1zm99 3c0 1-1 2-3 2l-3 1-1 1c-4-1-6 3-4 6l2 3 1-3c1-3 1-3 5 3l3 2c1 0 2 0 1 2l3-2c3-3 3-4 2-5-2-1-2-9 0-9 1 0 7 12 10 22 2 7 2 7 0 11-2 7-8 15-12 19-3 3-3 3-8 2l-10-2c-5-2-14-12-14-15h-1l-4-2-3-2v-1h1c3 0 3 0 2-3v-3l2 3 4 6 3 2 1-2c4-5-3-12-12-11l-4-1v-3h7c3 0 8-1 12-4l2-2-4-1c-3 0-6-1-8-3-4-3-4-5 0-2 2 2 4 2 7 2 5-1 6-3 1-3l-5-2-1-2c6 2 10 2 14 0l5-3 4-1 4-1 1 1zm3 1h1c0 2-2 2-3 0h2zm106 7-6-1-9-1h-1l9-2 7 1v3zM35 44c-1 4-4 4-3 0 0-3 0-3 2-3l1 3zm97-1-1 2-1-2 1-1 1 1zM30 48c-1 1-1 1-1-2 0-2 0-3 1-2v4zm90-4-1 2v-2c1-2 2-1 1 0zm12 6-1 1-1-1 1-1 1 1zm-74 2-2 4c-2 1-2 1-2-2s1-4 3-4l1 2zm32 4h-2c-2-2-1-3 1-2l1 2zm141 2 7 2 1 20v18l-3-2-6-8c-1-4-5-9-8-11l-4-5h7l9 1-1-1-11-3-10-2-4-2c-4-2-2-3 7-7h16zm-64 10c4 3 6 3 15 3 10-1 11-1 16-4s5-3 8-2l5 3c1 1 0 2-3 2l-13 4c-12 4-20 4-27 1-4-2-9-8-8-9l-1-1-3-2c-1-2-1-2 2 0l9 5zm-74-4v2c-1 3-2 3-5-1l-1-3 3 1 3 1zm3-2-1 2-1-1 2-1zm-38 2c0 2-4 4-4 3h-1l-2 2c-3 0-2-2 2-4s5-2 5-1zm46 1v2l-2-2v-1l2 1zm-34 3 7 5c3 2 5 3 9 3l3-1-3-2h2c5 2 6 3 8 8 3 5 5 15 5 23s2 16 4 20l2 4-5 5-5 6v5c1 2 0 5-3 5-2 0-8-4-9-7s-14-16-18-19c-3-1-4-4-5-12l-1-15V82c0-4 6-15 7-15l2 1zm34 2-1-1 1-1v2zm46 1c1 2 1 3-2 6-3 5-4 6-3 2l4-10 1 2zm71 6 8 11 7 10 3 1v50h-34c-35 0-34 0-41-5-2-2-3-3-2-4l-9 7c-2 2-3 2-15 2h-14l-6-4-13-6-5-1 6-7c6-5 7-6 12-7l2-1h-5l2-3 7-9c4-5 4-5 1-3l-3 2 3-5 4-6 1-1c0-2 9-10 14-13l3-3 2-4c3-3 3-3 5-1v2l5 4c10 6 23 5 37-3 9-5 16-8 19-8 1 0 4 2 6 5zM60 104v6l-1-16 1 10zm50-2 5 6c2 1 2 2 1 3-2 2-1 3 1 2 2 0 3 1 1 2-2 2-6-3-9-12-2-6-2-7 1-1zm10 9-1 1-1-1 2-1v1zm-52 14c4 4 12 11 13 14l5 6 3 4h-8c-8 0-9 0-12-2-3-3-5-7-6-12-1-2-1-3 1-3 1 0 1-1-1-2s-2-1-5 1c-5 3-5 4-2 4l3 1-3 1c-2 0-10 3-9 4l4-1c3-2 9-1 9 0l-4 3-4 1h4c5 0 5 2 0 3l-3 1-3 1c-3 0-3-1 0-3s1-3-2-1c-2 1-2 1-2-4 0-4 1-5 4-6 1-1 3-2 2-3l2-3 2-3c0-1 5-3 8-3l4 2zm-16 4-2 3-2 2c-2 1-2 1-2-1s1-3 3-4c4-2 5-2 3 0zm222 17c-1 1-1 1-1-2 0-2 0-3 1-2v4zm10-4-1 1 1 2v1l-1-1c-1-1 0-4 1-4v1zm6 3-1 4v-4l1-4v4zm-22-2h-2l1-1 1 1zm11-1-1 2-1-1 2-1zm-162 3 4 3-11 1H98l4-3c4-4 9-4 15-1zm47 1 4 3h-15l3-3 4-3 4 3zm-96 2-1 1-1-1v-1l2 1zm210 1h-2l1-1 1 1zM10 163c-1 3-3 4-3 1-1-2-1-4 2-4l1 3zm6-2h-2c-3 0-2-1 0-1l2 1zm21 3c0 4-1 4-1 0l1-4v4zm13-2c-1 1-4 0-4-1h2l2 1zm10-1h-2v-1l2 1zm18 0-1 1-1-1 1-1 1 1zm9 3-1 4v-8l1 4zm6-3-1 3 1 3v1c-2 0-2-1-2-4s0-4 2-4v1zm19 1c0 1 0 2-1 1v1l1 3h-1l-1-1h-2v-1l1-1-1-1-1-1c0-2 1-2 3-2 1 0 2 0 2 2zm5-1h-2c-3 0-2-1 0-1l2 1zm11 4v3l-1-4c-1-3 0-5 1-2v3zm11-1c0 2-1 3-2 3v-7h1l1 4zm5-3h-2l1-1 1 1zm34 2-1 3v-2l-1-2v-1c2-1 3 0 2 2zm10-2h-2l1-1 1 1zm3 3c0 3-1 3-3 4-2 0-2 0-1-2v-1l-1-2 2-1 1-1 1-1 1 4zm4-3-1 1-1-1 1-1 1 1zm7 3-1 4-1-2-1-2c-2 0-1-4 1-4 1 0 2 1 2 4zm27-3h-2c-1-1 0-1 1-1s2 0 1 1zm6 0-2 1c-2 0-2 0-1-1h3zm22 0h-3c-1-1 0-1 2-1 1 0 2 0 1 1zm17 2v4c-2-2-2-5-1-6 1-2 2 0 1 2zm11-2h-2l1-1 1 1zm6 0-1 1-1-1 1-1 1 1zm5 1v1l-1 1c-1 0-2-1-1-4l2 1v1zm-230 0h-2v-1l2 1zm8 1c0 2 0 2-1 1l-2-1-3-1 3-1c2 0 3 1 3 2zm8-1h-2l1-1 1 1zm40 0-1 1-2-1 1-1 2 1zm11 0h-2l1-1 1 1zm17 0-1 1c-1 0-2 0-1-1l1-1 1 1zm10 2-1-2c-1-1-1-1 0 0l1 2zm7-1c-1 1-2 2-2 0v-1c-1-1 0-1 1-1 2 0 2 0 1 2zm39-1h-2l1-1 1 1zm7 0h-2l1-1 1 1zm47 1-1-1 1-1v2zm3-1v1l1 1c-1 1-3-1-2-2l1-1v1zm5 0h-2l1-1 1 1zm12 1h-2c-1 0-2 0-1-1l3 1zm-259 0h-2v-1l2 1zm104 1h-1l1-2v2zm133-1h-2v-1l2 1zm13 1h-1l1-2v2zm-194 3-1-1-1-2h1l1 3zm118-3-1 1-1-1v-1l2 1zm11 0-1 1-1-1 1-1 1 1zm85 0-1 1-1-1v-1l1 1zM3 166l-1-1 1-1v2zm2 0-1-1 1-1v2zm11-2-1 2-1-1 1-1h1zm73 2-1-1 1-1v2zm28-1-1 1-1-1 1-1 1 1zm5-1-1 2-1-1 1-1h1zm89 1 1 1-2-1v-1l2 1zm51 0 1 1v2c-2 0-4-1-4-3h3zm18 1-2 1c-1 1-2 0-2-1s1-2 2-1l2 1zm-208 0h-2c-3 0-2-1 0-1 1 0 2 0 1 1zm-23 2-2-1c-1-1-1-1 0 0l2 1zm-34 0h-2l1-1 1 1zm28 0h-2l1-1 1 1zm18 0h-2v-1l2 1zm43 0h-2l1-1 1 1zm18 0h-3c-1-1 0-1 1-1 2 0 3 0 2 1zm23 0h-2v-1l2 1zm22 0h-2l1-1 1 1zm11 0h-2l1-1 1 1zm21 0h-2l1-1 1 1zm8 0h-2l1-1 1 1zm4 0h-2l1-1 1 1zm75 0h-2l1-1 1 1zm10 0h-2l1-1 1 1zM4 170H2v-1l2 1zm39 0h-2v-1l2 1zm61 0h-2l1-1 1 1zm8 0-2 1-1-1 1-1 2 1zm27 0 1 1-2-1v-1l2 1zm17 0h-2v-1l2 1zm16 0h-2l1-1 1 1zm23 0h-1c-3 0-2-1 0-1 1 0 2 0 1 1zm62 0h-2v-1l2 1zm-242 2-1 1-1-1c-1-1 0-2 1-2s2 1 1 2zm4-1h-2l1-1 1 1zm8 0-1 1-3-1 2-1 2 1zm5-1c0 2-2 2-3 1l1-1h2zm6 2-2 2c-1 0-2-2 0-2l-1-1c-1-1-1-1 1-1l2 2zm28-1-1 2-1-1-1-1c-1-1-1-1 1-1l2 1zm10 1v3c0 2-1 0-2-2 0-2 1-3 2-3v2zm6-1h-2c-1-1 0-1 1-1s2 0 1 1zm26 1-1-1 1-1v2zm8 0c-1 1-3 2-2 0v-1c-1-1 0-1 1-1 2 0 2 0 1 2zm17-1v2c1 1 1 1 0 0-3-1-3-3-1-3 1 0 2 0 1 1zm12 0-1 1-3-1 2-1 2 1zm5 0h-2l1-1 1 1zm9 1-1-1 1-1v2zm4-1h-2v-1l2 1zm5-1c0 2-2 2-3 1l1-1h2zm10 1h-2l1-1 1 1zm12 1-2 1-2-1 2-2 2 2zm11-1h-2v-1l2 1zm6 0h-3c-1-1 0-1 1-1 2 0 3 0 2 1zm16 0h-2c-1-1 0-1 1-1s2 0 1 1zm3 1-1-1 1-1v2zm4-1h-2v-1l2 1zm4 0h-2l1-1 1 1zm6 0h-3c-1-1 0-1 1-1 2 0 3 0 2 1zm11 2-1 1v-2l-1-1c-1-1-1-1 1-1 1 0 2 0 1 3zm17-1c-1 1-3 2-2 0v-1c-1-1 0-1 1-1 2 0 2 0 1 2zm4 0-1-1 1-1v2zm7-1h-2c-1-1 0-1 1-1s2 0 1 1zm-230 1h-2v-1l2 1zm46-1-3 2c-1 1-1 1 0 0l2-2h1zm10 1h-2v-1l2 1zm79 0h-2c-1-1 0-1 1-1s2 0 1 1zm29-1-3 2c-1 1-1 1 0 0l2-2h1zm4 1h-2c-1-1 0-1 1-1s2 0 1 1zm30-1-3 2c-1 1-1 1 0 0l2-2h1zm16 0-2 2c-1 1-1 1 0 0l2-2zM4 173H2l1-1 1 1zm108 0h-2v-1l2 1zm44 0h-2v-1l2 1zm45-1-2 1h-1l3-1zm6 2c-1 2-4 3-4 0l2-2 2 2zm28-1h-2v-1l2 1zm5 4h-2v-2l1-1v-1c0-2 2 2 1 4zm39-3h-1l1-2v2zm-247 0h-2v-1l2 1zm135 1-1 1-1-2c1-1 2-1 2 1zm18 0h-3c-2 0-2 0-1-1s4 0 4 1zm10-1c1 1 0 1-2 1s-2 0-1-1l3-1v1zm35-1c0 2-2 2-3 1l1-1h2zM8 176l-1-1 1-1v2zm13-1h-2l1-1 1 1zm66 0h-2l1-1 1 1zm52 0c1 1 0 1 0 0-2 0-3-1-1-1l1 1zm17 0h-2v-1l2 1zm33 0h-2c-1-1 0-1 1-1s2 0 1 1zm95 0h-2l1-1 1 1zm-269 2-1-1 1-1v2zm22-1-1 1v-1h1zm71 1h-1l1-2v2zm25-1v1l-1-1v-1l1 1zm26 1-1-1 1-1v2zm65-1-2 1c-2 0-2 0-1-1l3-1v1zm2 1h-1l1-2v2zm-70 0-2 1v-1h2zm28 0-2 1-1-1 2-1 1 1zm46 1-1-1 1-1v2zm-203 0h-2l1-1 1 1zm17 0h-2v-1l2 1zm22 0h-2l1-1 1 1zm16 0h-2l1-1 1 1zm12 0h-2v-1l2 1zm51 0h-2l1-1 1 1zm28 0h-2v-1l2 1zm28 0h-2l1-1 1 1zm11 0h-2c-1-1 0-1 1-1s2 0 1 1zm34 0h-2v-1l2 1zm5 0h-2l1-1 1 1zm7 0h-2v-1l2 1zm5 0h-2v-1l2 1zm16 0h-2l1-1 1 1z"
        class="yak" />
    <path
        d="m34 21 1 1v-2l-1 1zM136 46h2l-1-1-1 1zM128 55l1 1 1-1-1-1-1 1zM104 62l3 1v-1h-3zM110 68l2 3c1 1 1 1 1-1-1-2-3-4-3-2zM123 76l-4 5 3 1c6 3 8 2 8-3 0-8-1-8-7-3zm1 3-2 1 4-5-2 4zM112 76c0 2 5 3 5 1l-1-1-3-1c-2 0-2 0-1 1zM131 83c-2 2-1 3 1 2l1-2h-2zM151 81h2l-1-1-1 1zM210 87a164 164 0 0 1 7 8l-5-6-2-2zM149 93l8 1c1 1 1 1 0 0l-8-2h-6l6 1zM190 94v2l1-3c0-1-1-1-1 1zM159 95l5 4c6 4 12 12 13 21l1 4v-5c-1-6-3-10-8-16l-11-8zM186 105l-1 2 1-2c1-1 0-1 0 0zM182 115l-3 6 3-5c3-9 3-9 0-1zM206 114l-16 9c-6 4-13 6-12 3l-1-1v5c2 0 8-2 13-6a231 231 0 0 1 15-10zM236 113l1 1-1-1-1-1 1 1zM139 116h6c2 0 1-1-3-1s-5 0-3 1zM148 120l-12 1-12 1h12c8 0 12-1 13-2v-1l-1 1zM170 134l-3 3 7-4-4 1zM204 174l1 1 1-1-1-1-1 1zM44 6l-4 3v16c1 0 2-12 1-14v-1h1l1-3h1v4l-1 4v1c1-1 1 0 1 2l-1 4v1c1-1 1-1 1 1l1 1v-6c0-4 0-5 2-6l3-2h-1c-4 2-4 2-4 0l2-2 3-2c2-3 2-3 0-4s-3 0-6 3zm3-1h1v1c-1 2-2 2-2 1V4c2-2 2-1 1 1zM57 5v3c1 0 2-1 1-4-1-2-1-2-1 1zM70 6c-2 2-1 2 1 1l1-2h-2zM61 11c-1 1 0 1 1 1l2-2c0-1-3-1-3 1zM56 13l-3 3c-1 1 1 1 2-1l2-1 1-1 1-1-3 1zM0 24l1 4v-8l-1 4zM48 19l-1 1 3-1v-2l-2 2zM48 25v1h2c0-2 0-2-2-1zM40 28l-2 3c-2 0-3 1-3 2-1 2 0 1 4-1 2-2 3-3 2-4h-1zM44 28v1l1-1v-1l-1 1zM48 32l-3 1h-1l-2 3-3 1h3c2-1 2-1 2 1l-1 4c-1 1-1 1 0 0l1 5v3l1-5c0-3 0-4 2-4l3-2h-2c-3 1-3 1-3-2l3-4 4-3-4 2zM1 86v27a2475 2475 0 0 0 0-27zM56 42l1 1 1 1c1 2 1 2 1 0 0-3-1-4-3-2zM40 44l-1 2 1-2c1-1 0-2-1 0zM49 46c-1 1 0 1 0 0 2 0 2-1 1-1l-1 1zM35 51c-1 4-1 5 1 4v-8l-1 4zM43 56c-1 2 1 2 3 0 1-2 1-2-1-2l-2 2zM58 79l1 1v-2l-1 1zM57 85c0 2 0 3 1 2v-4c-1-1-1 0-1 2zM50 87c0 1 0 2 1 1v-3c-1-1-1 0-1 2zM50 102c0 1 0 2 1 1v-2c-1-1-1 0-1 1z" />
</svg>